<svg xmlns="http://www.w3.org/2000/svg" data-name="Layer 1" width="425.67" height="193.67"><rect id="backgroundrect" width="100%" height="100%" x="0" y="0" fill="none" stroke="none"/><defs><style>.cls-1{fill:none;}.cls-2{fill:#fff;}.cls-3{fill:#adadad;}</style></defs><g class="currentLayer" style=""><title>Layer 1</title><path class="cls-1" d="M425.67,0 L0,0 L0,193.67 m425.67,0 h-381 c7.9,-1.31 13.15,-6.6 18,-12.32 a66,66 0 0 0 6.71,-9.71 c7.84,-13.64 13,-28.38 17.57,-43.36 a332.46,332.46 0 0 0 9.58,-41.92 c1.34,-8.08 2.49,-16.21 3.3200000000000003,-24.37 c0.7000000000000001,-7 1,-14.06 1.1600000000000001,-21.1 c0.23,-9.48 0.24000000000000002,-19 -1.3900000000000001,-28.38 c-0.6400000000000001,-3.75 -1.8800000000000001,-7.16 -4.8,-9.8 c-3.08,-2.7800000000000002 -6.28,-3 -9.64,-0.6800000000000002 A33.78,33.78 0 0 0 74.68,14.559999999999999 a2.22,2.22 0 0 0 -0.30000000000000004,1.4100000000000001 a2.6,2.6 0 0 0 1,1.4100000000000001 c0.18000000000000002,0.13 0.8400000000000001,-0.28 1.2,-0.56 a12.17,12.17 0 0 0 1.31,-1.28 c0.9400000000000001,-1 1.79,-0.8400000000000001 2.39,0.31000000000000005 a20.78,20.78 0 0 1 1.49,3.51 c1.79,6 1.71,12.24 1.73,18.46 A211.26,211.26 0 0 1 80.3,72.9 q-3.42,20.57 -7.6,41 c-3.1,15.12 -7.49,29.89 -14.33,43.8 a100.21,100.21 0 0 1 -7.75,13.14 c-2.18,3.12 -5.17,2.52 -6.86,-0.9400000000000001 a8.06,8.06 0 0 1 -0.8,-2.52 a67.48,67.48 0 0 1 -1,-9.25 c0.19000000000000003,-14.870000000000001 0.45,-29.75 0.92,-44.62 c0.38000000000000006,-12.36 1.12,-24.72 1.62,-37.08 c0.52,-12.59 0.92,-25.18 1.44,-37.77 a15.53,15.53 0 0 0 -1.23,-7.12 A3,3 0 0 0 42,29.46 c-5.19,-0.25 -9.93,1 -13.82,4.6 a8.34,8.34 0 0 0 -2.4,3.6900000000000004 c-3.6500000000000004,12.79 -9,24.88 -14.81,36.81 a23.35,23.35 0 0 1 -3.49,4.83 c-0.45,0.54 -1.4100000000000001,0.6500000000000001 -2.14,1 c-0.26,-0.6800000000000002 -0.52,-1.36 -0.7600000000000001,-2 s-0.39000000000000007,-1.2 -0.5800000000000001,-1.8 a19.62,19.62 0 0 0 -1.77,1.05 a2.37,2.37 0 0 0 -0.6500000000000001,0.9500000000000001 c-2.2800000000000002,5.52 -2,13 5.06,16.88 c3,1.61 5.82,1.57 8.55,-0.54 A25.18,25.18 0 0 0 23.5,84.16 c2.07,-5.19 3.8600000000000003,-10.5 5.78,-15.75 c0.24000000000000002,-0.6800000000000002 0.51,-1.34 0.7600000000000001,-2 c-0.16000000000000003,3.83 -0.6800000000000002,7.55 -1.11,11.28 c-0.7600000000000001,6.55 -1.55,13.1 -2.16,19.66 c-0.5,5.47 -0.7300000000000001,11 -1.13,16.44 c-0.48000000000000004,6.640000000000001 -1.2,13.26 -1.48,19.91 c-0.29000000000000004,6.8100000000000005 -0.22000000000000003,13.64 -0.2,20.47 a77,77 0 0 0 3.43,23.93 c1.8900000000000001,5.77 4.85,10.77 10.5,13.57 a44.58,44.58 0 0 0 6.11,2 M368.86,46.93 c-0.35000000000000003,0.8700000000000001 -0.47000000000000003,1.18 -0.6000000000000001,1.49 c-0.7300000000000001,1.81 -1.18,3.6500000000000004 0.11000000000000001,5.37 A5,5 0 0 0 374,55.43 a46.9,46.9 0 0 0 8.32,-3.21 c4.65,-2.3 6.640000000000001,-6.3100000000000005 6.62,-11.41 c0,-4.1 -1.4300000000000002,-6.16 -5.3100000000000005,-7.42 a30.6,30.6 0 0 0 -14.16,-0.8500000000000001 a94.71,94.71 0 0 0 -35.19,13 c-5.94,3.58 -11.13,8.11 -14,14.58 c-3.74,8.54 -1.78,15.2 7.09,18.84 a25.46,25.46 0 0 0 2.64,1 c5.11,1.46 10.24,2.8600000000000003 15.34,4.36 A80.78,80.78 0 0 1 353.7,87 c2.91,1.2 3.13,3.3200000000000003 0.6700000000000002,5.33 a17.09,17.09 0 0 1 -3.6500000000000004,2.29 c-7.29,3.4 -15,4.52 -23,4.34 a5.32,5.32 0 0 1 -2.73,-1 a6.4,6.4 0 0 1 -2.73,-5.24 c-0.25,-3.6900000000000004 -0.6400000000000001,-7.39 -1.17,-11 a3.37,3.37 0 0 0 -1.6700000000000002,-2.21 c-1.11,-0.53 -2.1,0.21000000000000002 -2.8,1.21 c-0.51,0.7300000000000001 -1,1.44 -1.6,2.13 c-2.83,3.5700000000000003 -5.48,7.3 -8.58,10.620000000000001 a34,34 0 0 1 -7.5,6 c-3.13,1.85 -5.36,0.5700000000000001 -5.61,-3.07 a30,30 0 0 1 0.46,-8.08 a146.72,146.72 0 0 1 15.32,-41.46 c1.79,-3.21 0.24000000000000002,-6.91 -3.36,-7.38 c-5.45,-0.7100000000000001 -8.4,0.32000000000000006 -10.58,4.5 a12.31,12.31 0 0 1 -0.6900000000000002,1.05 c-2.49,-3.48 -6,-4.47 -9.94,-4.51 c-6.8,-0.07 -12.81,2.34 -18.45,5.86 c-7.9,4.95 -14.4,11.47 -20.23,18.67 c-6.42,7.91 -11.18,16.64 -13.18,26.74 a3.25,3.25 0 0 1 -1,1.5 a212.07,212.07 0 0 0 -23.49,28.29 c-0.26,0.36000000000000004 -0.5700000000000001,0.6900000000000002 -0.8600000000000001,1 a3.27,3.27 0 0 1 0.14,-1.73 c5.19,-16.25 10.21,-32.55 15.66,-48.72 c3,-8.8 6.69,-17.34 10,-26 a2.43,2.43 0 0 0 0.05000000000000001,-1.7000000000000002 a12,12 0 0 0 -1.6700000000000002,-2.8600000000000003 a2.47,2.47 0 0 0 -1.7600000000000002,-1 c-4.07,0.6200000000000001 -8.14,1.35 -11.15,4.57 c-0.81,0.8700000000000001 -1.48,1.8800000000000001 -2.29,2.92 c-2.67,-2.45 -5.79,-2.36 -8.81,-1.35 a54,54 0 0 0 -9.44,4 c-9.76,5.55 -17.45,13.47 -24.32,22.22 c-7.36,9.39 -13.3,19.52 -15.93,31.32 a8.71,8.71 0 0 1 -0.81,2.68 c-4.17,6.55 -8.2,13.2 -12.7,19.52 a27.23,27.23 0 0 1 -19.66,11.8 a6.82,6.82 0 0 1 -6.77,-2.6500000000000004 c-1.6900000000000002,-2.27 -0.7200000000000001,-4.41 0.44000000000000006,-6.35 a85.67,85.67 0 0 1 15.28,-19.43 a29.17,29.17 0 0 0 4.59,-6.23 a3.34,3.34 0 0 0 0,-2.8 a6.18,6.18 0 0 0 -9.18,-2.4 c-1.9500000000000002,1.27 -3.7,2.84 -5.62,4.15 a29.5,29.5 0 0 1 -4.59,2.64 c-1.6300000000000001,0.7300000000000001 -2.31,0.11000000000000001 -2,-1.6800000000000002 a11,11 0 0 1 1.07,-3.13 A73.78,73.78 0 0 1 131.25,82.1 c0.46,-0.44000000000000006 1,-0.81 1.6400000000000001,-1.33 c0.27,1 0.46,1.7200000000000002 0.7000000000000001,2.44 c0.9500000000000001,2.91 2.2,3.49 5,2.36 a16.81,16.81 0 0 0 10,-16.72 c-0.48000000000000004,-4.37 -2.09,-5.93 -6.48,-5.75 A19,19 0 0 0 136,64.33 c-8.37,3.38 -14.94,9.24 -21,15.73 a45.94,45.94 0 0 0 -10,15.73 c-2.3,6.24 -1.92,12.14 1.57,17.86 a7.73,7.73 0 0 0 5.67,3.91 c0.3400000000000001,0 0.6700000000000002,0.16000000000000003 1,0.24000000000000002 l0.29000000000000004,0.47000000000000003 a9.36,9.36 0 0 0 -1.37,0.92 c-3.58,3.39 -6.72,7.08 -8.42,11.82 c-2.71,7.58 0.48000000000000004,18.17 10.92,20.45 a28.79,28.79 0 0 0 12.86,-0.35000000000000003 c12,-2.8200000000000003 21,-9.93 28.4,-19.44 c1,-1.26 1.94,-2.5300000000000002 3,-3.89 c0.31000000000000005,0.42000000000000004 0.52,0.6700000000000002 0.7000000000000001,0.9400000000000001 c2.06,3.15 5,4.45 8.72,4.6 a17.81,17.81 0 0 0 13.16,-5 a102,102 0 0 0 18.31,-22.76 c0.41000000000000003,-0.6700000000000002 0.8400000000000001,-1.31 1.27,-2 a2.26,2.26 0 0 1 -0.09000000000000002,1.4100000000000001 c-2.77,8.07 -5.63,16.11 -8.28,24.21 a41.31,41.31 0 0 1 -6.15,11.67 c-4.27,5.87 -8.25,12 -12,18.17 c-3.49,5.72 -5.58,12 -4.94,18.83 c0.5800000000000001,6.32 3.17,11.29 11,10.36 c4.49,-0.53 7,-2.45 8.4,-6.6 A205.93,205.93 0 0 1 205,145.24 c6.3100000000000005,-11.26 14.66,-21 23.45,-30.39 c1.6500000000000001,-1.77 3.3200000000000003,-3.5300000000000002 5.11,-5.42 c0.46,0.7500000000000001 0.78,1.32 1.13,1.86 a14.12,14.12 0 0 0 12.29,7 c4.84,0.07 8.79,-2.06 12.55,-4.71 a75.34,75.34 0 0 0 19.12,-19.76 c0.43000000000000005,-0.6400000000000001 0.92,-1.25 1.3800000000000001,-1.8800000000000001 a2.17,2.17 0 0 1 0,1.28 c-0.08000000000000002,0.43000000000000005 -0.17,0.8700000000000001 -0.22000000000000003,1.31 c-0.6400000000000001,5.82 -0.08000000000000002,11.32 4.18,15.85 a11.41,11.41 0 0 0 7.3,3.5700000000000003 c6.37,0.7500000000000001 11.59,-1.77 16.34,-5.66 c1,-0.8300000000000001 2,-1.6900000000000002 3.13,-2.63 a12.2,12.2 0 0 0 7.43,6.47 a40.49,40.49 0 0 0 16.48,1.31 c7.86,-0.8300000000000001 15.17,-3.63 22.24,-7 a31.45,31.45 0 0 0 12.94,-10.71 c4.4,-6.62 3.09,-13.82 -3.39,-18.36 a24.39,24.39 0 0 0 -6.58,-3.5 c-6.7,-2.1 -13.51,-3.85 -20.28,-5.74 c-1.86,-0.52 -3.75,-1 -5.57,-1.62 c-1.36,-0.47000000000000003 -1.57,-1.52 -0.7400000000000001,-2.64 a14.75,14.75 0 0 1 2.12,-2.34 A59.68,59.68 0 0 1 361.35,48 C363.68,47.46 366.1,47.31 368.86,46.93 zm0,113 c0.07,-0.13 0.09000000000000002,-0.2 0.13,-0.22000000000000003 q0.41000000000000003,-0.28 0.8400000000000001,-0.54 c4.87,-2.81 7,-7 6.62,-12.620000000000001 c-0.38000000000000006,-5.24 -3.24,-8.69 -7.8100000000000005,-10.91 a25.16,25.16 0 0 0 -11,-2.23 c-6.33,0 -12.66,0 -19,0 c-0.49000000000000005,0 -1,0 -1.49,0.08000000000000002 V189.9 H339 c6.27,0 12.55,0 18.82,0 a50.7,50.7 0 0 0 7.28,-0.6000000000000001 c8.24,-1.3 13,-6 14.05,-13.7 a13.69,13.69 0 0 0 -9.18,-15.2 C369.61,160.23 369.23,160.06 368.83,159.9 zM237.71,189.81 c0.47000000000000003,0 0.8,0.08000000000000002 1.12,0.08000000000000002 c7.11,0 14.22,0.08000000000000002 21.33,0 a33.42,33.42 0 0 0 7.25,-0.9400000000000001 c5.53,-1.33 9.93,-4.19 11.69,-10 c2.44,-8 -0.6000000000000001,-16.26 -9,-18.73 a7.6,7.6 0 0 1 -0.7500000000000001,-0.38000000000000006 c0.8,-0.51 1.46,-0.9 2.1,-1.33 a13,13 0 0 0 -0.39000000000000007,-21.89 c-3.89,-2.48 -8.25,-3.18 -12.74,-3.22 c-6.33,-0.07 -12.66,0 -19,0 h-1.61 zm42.25,0.09000000000000002 c2.38,0 4.44,-0.05000000000000001 6.48,0 a1.6600000000000001,1.6600000000000001 0 0 0 1.92,-1.33 c1.7000000000000002,-4.86 3.54,-9.68 5.23,-14.54 a1.78,1.78 0 0 1 2,-1.4 c6.890000000000001,0 13.77,0.06000000000000001 20.66,0 a1.83,1.83 0 0 1 2,1.44 q2.6900000000000004,7.24 5.49,14.45 c0.2,0.5 0.6600000000000001,1.28 1,1.29 c2.5700000000000003,0.12000000000000001 5.14,0.06000000000000001 7.93,0.06000000000000001 l-7.45,-18.29 q-7.49,-18.32 -14.92,-36.65 a2.07,2.07 0 0 0 -2.42,-1.6 a29,29 0 0 1 -4.66,0 a1.94,1.94 0 0 0 -2.27,1.54 q-7.91,20.75 -15.89,41.45 C283.45,180.76 281.76,185.2 280,189.9 zm145.5,-56.8 c-2.13,0 -3.9,0 -5.66,0 a4.15,4.15 0 0 0 -4.05,2.35 c-3.91,6.77 -7.890000000000001,13.5 -11.86,20.24 c-2,3.43 -4.63,3.41 -6.65,0 c-4,-6.79 -7.94,-13.61 -12,-20.34 a4.62,4.62 0 0 0 -2.75,-2.07 a47.74,47.74 0 0 0 -6.71,-0.09000000000000002 c0.4,0.7200000000000001 0.6800000000000002,1.24 1,1.75 c5.26,8.94 10.39,18 15.81,26.81 A28.13,28.13 0 0 1 396.91,178 c-0.07,1.7200000000000002 0.55,3.9 -0.29000000000000004,5 s-3.11,1.3900000000000001 -4.76,2 l-0.16000000000000003,0 c-2.29,0.8300000000000001 -3.05,2.34 -2.41,4.79 h22.58 c0.37000000000000005,-3.2 -0.07,-3.92 -2.94,-4.94 c-1.51,-0.54 -3,-1.06 -4.63,-1.62 c0,-2.6 0,-5.15 0,-7.7 a22.69,22.69 0 0 1 3.21,-11.89 l7.67,-13.07 zm-34.14,5.47 c3,5.14 6,10.14 9.06,15.39 l7.29,-12.4 c-2.31,-0.30000000000000004 -4.65,-0.46 -6.92,-1 a25.79,25.79 0 0 1 -4.12,-1.7400000000000002 A6.43,6.43 0 0 0 391.32,138.57 z" id="svg_1"/><path class="cls-2" d="M44,193.67 a44.58,44.58 0 0 1 -6.11,-2 c-5.65,-2.8 -8.61,-7.8 -10.5,-13.57 A77,77 0 0 1 24,154.16 c0,-6.83 -0.09000000000000002,-13.66 0.2,-20.47 c0.28,-6.65 1,-13.27 1.48,-19.91 c0.4,-5.48 0.6300000000000001,-11 1.13,-16.44 c0.6100000000000001,-6.5600000000000005 1.4,-13.11 2.16,-19.66 c0.43000000000000005,-3.73 1,-7.45 1.11,-11.28 c-0.25,0.6700000000000002 -0.52,1.33 -0.7600000000000001,2 C27.36,73.66 25.57,79 23.5,84.16 a25.18,25.18 0 0 1 -8.27,10.67 c-2.73,2.11 -5.57,2.15 -8.55,0.54 C-0.41999999999999993,91.53 -0.6600000000000001,84 1.62,78.49 a2.37,2.37 0 0 1 0.6500000000000001,-0.9500000000000001 A19.62,19.62 0 0 1 4,76.49 c0.19000000000000003,0.6000000000000001 0.37000000000000005,1.2 0.5800000000000001,1.8 s0.5,1.37 0.7600000000000001,2 c0.7300000000000001,-0.30000000000000004 1.6900000000000002,-0.41000000000000003 2.14,-1 A23.35,23.35 0 0 0 11,74.56 c5.77,-11.93 11.16,-24 14.81,-36.81 a8.34,8.34 0 0 1 2.4,-3.6900000000000004 c3.89,-3.55 8.63,-4.85 13.82,-4.6 a3,3 0 0 1 2.71,2.07 A15.53,15.53 0 0 1 46,38.65 c-0.52,12.59 -0.92,25.18 -1.44,37.77 c-0.5,12.36 -1.24,24.72 -1.62,37.08 c-0.47000000000000003,14.870000000000001 -0.7300000000000001,29.75 -0.92,44.62 a67.48,67.48 0 0 0 1,9.25 a8.06,8.06 0 0 0 0.8,2.52 c1.6900000000000002,3.46 4.68,4.06 6.86,0.9400000000000001 a100.21,100.21 0 0 0 7.75,-13.14 C65.21,143.78 69.6,129 72.7,113.89 q4.18,-20.42 7.6,-41 a211.26,211.26 0 0 0 3.17,-35.08 c0,-6.22 0.06000000000000001,-12.43 -1.73,-18.46 a20.78,20.78 0 0 0 -1.49,-3.51 c-0.6000000000000001,-1.15 -1.45,-1.29 -2.39,-0.31000000000000005 a12.17,12.17 0 0 1 -1.31,1.28 c-0.36000000000000004,0.28 -1,0.6900000000000002 -1.2,0.56 a2.6,2.6 0 0 1 -1,-1.4100000000000001 a2.22,2.22 0 0 1 0.30000000000000004,-1.4100000000000001 A33.78,33.78 0 0 1 85.15,2 c3.36,-2.37 6.5600000000000005,-2.1 9.64,0.6800000000000002 c2.92,2.64 4.16,6.05 4.8,9.8 c1.6300000000000001,9.4 1.62,18.9 1.3900000000000001,28.38 c-0.17,7 -0.46,14.1 -1.1600000000000001,21.1 c-0.8300000000000001,8.16 -2,16.29 -3.3200000000000003,24.37 a332.46,332.46 0 0 1 -9.58,41.92 c-4.54,15 -9.73,29.72 -17.57,43.36 a66,66 0 0 1 -6.71,9.71 c-4.82,5.72 -10.07,11 -18,12.32 z" id="svg_2"/><path class="cls-2" d="M368.86,46.93 c-2.7600000000000002,0.38000000000000006 -5.18,0.53 -7.51,1.08 a59.68,59.68 0 0 0 -25.86,13.47 a14.75,14.75 0 0 0 -2.12,2.34 c-0.8300000000000001,1.12 -0.6200000000000001,2.17 0.7400000000000001,2.64 c1.82,0.6300000000000001 3.71,1.1 5.57,1.62 c6.77,1.8900000000000001 13.58,3.64 20.28,5.74 a24.39,24.39 0 0 1 6.58,3.5 c6.48,4.54 7.79,11.74 3.39,18.36 A31.45,31.45 0 0 1 357,106.39 c-7.07,3.41 -14.38,6.21 -22.24,7 a40.49,40.49 0 0 1 -16.48,-1.31 a12.2,12.2 0 0 1 -7.43,-6.47 c-1.11,0.9400000000000001 -2.11,1.8 -3.13,2.63 c-4.75,3.89 -10,6.41 -16.34,5.66 a11.41,11.41 0 0 1 -7.3,-3.5700000000000003 c-4.26,-4.53 -4.82,-10 -4.18,-15.85 c0.05000000000000001,-0.44000000000000006 0.14,-0.8800000000000001 0.22000000000000003,-1.31 a2.17,2.17 0 0 0 0,-1.28 c-0.46,0.6300000000000001 -0.9500000000000001,1.24 -1.3800000000000001,1.8800000000000001 a75.34,75.34 0 0 1 -19.12,19.76 c-3.7600000000000002,2.6500000000000004 -7.71,4.78 -12.55,4.71 a14.12,14.12 0 0 1 -12.29,-7 c-0.35000000000000003,-0.54 -0.6700000000000002,-1.11 -1.13,-1.86 c-1.79,1.8900000000000001 -3.46,3.6500000000000004 -5.11,5.42 C219.7,124.22999999999999 211.35,134 205,145.24 a205.93,205.93 0 0 0 -16.18,36.43 c-1.36,4.15 -3.91,6.07 -8.4,6.6 c-7.85,0.93 -10.44,-4 -11,-10.36 c-0.6400000000000001,-6.85 1.45,-13.11 4.94,-18.83 c3.7800000000000002,-6.2 7.76,-12.3 12,-18.17 a41.31,41.31 0 0 0 6.15,-11.67 c2.6500000000000004,-8.1 5.51,-16.14 8.28,-24.21 a2.26,2.26 0 0 0 0.09000000000000002,-1.4100000000000001 c-0.43000000000000005,0.6600000000000001 -0.8600000000000001,1.3 -1.27,2 a102,102 0 0 1 -18.31,22.76 a17.81,17.81 0 0 1 -13.16,5 c-3.71,-0.15000000000000002 -6.66,-1.45 -8.72,-4.6 c-0.18000000000000002,-0.27 -0.39000000000000007,-0.52 -0.7000000000000001,-0.9400000000000001 c-1,1.36 -2,2.63 -3,3.89 c-7.39,9.51 -16.42,16.62 -28.4,19.44 a28.79,28.79 0 0 1 -12.86,0.35000000000000003 c-10.44,-2.2800000000000002 -13.63,-12.870000000000001 -10.92,-20.45 c1.7000000000000002,-4.74 4.84,-8.43 8.42,-11.82 a9.36,9.36 0 0 1 1.37,-0.92 l-0.29000000000000004,-0.47000000000000003 c-0.3400000000000001,-0.08000000000000002 -0.6700000000000002,-0.19000000000000003 -1,-0.24000000000000002 a7.73,7.73 0 0 1 -5.67,-3.91 c-3.49,-5.72 -3.87,-11.620000000000001 -1.57,-17.86 a45.94,45.94 0 0 1 10,-15.73 c6.09,-6.49 12.66,-12.35 21,-15.73 a19,19 0 0 1 6.12,-1.23 c4.39,-0.18000000000000002 6,1.3800000000000001 6.48,5.75 a16.81,16.81 0 0 1 -10,16.72 c-2.7800000000000002,1.13 -4,0.55 -5,-2.36 c-0.24000000000000002,-0.7200000000000001 -0.43000000000000005,-1.47 -0.7000000000000001,-2.44 c-0.6400000000000001,0.52 -1.18,0.8900000000000001 -1.6400000000000001,1.33 A73.78,73.78 0 0 0 118,100.34 a11,11 0 0 0 -1.07,3.13 c-0.36000000000000004,1.79 0.32000000000000006,2.41 2,1.6800000000000002 a29.5,29.5 0 0 0 4.59,-2.64 c1.92,-1.31 3.67,-2.88 5.62,-4.15 a6.18,6.18 0 0 1 9.18,2.4 a3.34,3.34 0 0 1 0,2.8 a29.17,29.17 0 0 1 -4.59,6.23 a85.67,85.67 0 0 0 -15.28,19.43 c-1.1600000000000001,1.94 -2.13,4.08 -0.44000000000000006,6.35 a6.82,6.82 0 0 0 6.77,2.6500000000000004 a27.23,27.23 0 0 0 19.66,-11.8 c4.5,-6.32 8.53,-13 12.7,-19.52 a8.71,8.71 0 0 0 0.81,-2.68 c2.63,-11.8 8.57,-21.93 15.93,-31.32 c6.87,-8.75 14.56,-16.67 24.32,-22.22 a54,54 0 0 1 9.44,-4 c3,-1 6.14,-1.1 8.81,1.35 c0.81,-1 1.48,-2.05 2.29,-2.92 c3,-3.22 7.08,-4 11.15,-4.57 a2.47,2.47 0 0 1 1.7600000000000002,1 a12,12 0 0 1 1.6700000000000002,2.8600000000000003 a2.43,2.43 0 0 1 -0.05000000000000001,1.7000000000000002 c-3.34,8.68 -7.06,17.22 -10,26 c-5.45,16.17 -10.47,32.47 -15.66,48.72 a3.27,3.27 0 0 0 -0.14,1.73 c0.29000000000000004,-0.3400000000000001 0.6000000000000001,-0.6700000000000002 0.8600000000000001,-1 a212.07,212.07 0 0 1 23.49,-28.29 a3.25,3.25 0 0 0 1,-1.5 c2,-10.1 6.76,-18.83 13.18,-26.74 c5.83,-7.2 12.33,-13.72 20.23,-18.67 c5.640000000000001,-3.52 11.65,-5.93 18.45,-5.86 c3.95,0 7.45,1 9.94,4.51 a12.31,12.31 0 0 0 0.6900000000000002,-1.05 c2.18,-4.18 5.13,-5.21 10.58,-4.5 c3.6,0.47000000000000003 5.15,4.17 3.36,7.38 a146.72,146.72 0 0 0 -15.32,41.46 a30,30 0 0 0 -0.46,8.08 c0.25,3.64 2.48,4.92 5.61,3.07 a34,34 0 0 0 7.5,-6 c3.1,-3.3200000000000003 5.75,-7 8.58,-10.620000000000001 c0.56,-0.6900000000000002 1.09,-1.4 1.6,-2.13 c0.7000000000000001,-1 1.6900000000000002,-1.7400000000000002 2.8,-1.21 a3.37,3.37 0 0 1 1.6700000000000002,2.21 c0.53,3.66 0.92,7.36 1.17,11 A6.4,6.4 0 0 0 325,98 a5.32,5.32 0 0 0 2.73,1 c8,0.18000000000000002 15.71,-0.9400000000000001 23,-4.34 a17.09,17.09 0 0 0 3.6500000000000004,-2.29 c2.46,-2 2.24,-4.13 -0.6700000000000002,-5.33 a80.78,80.78 0 0 0 -8.35,-2.7600000000000002 c-5.1,-1.5 -10.23,-2.9 -15.34,-4.36 a25.46,25.46 0 0 1 -2.64,-1 c-8.870000000000001,-3.64 -10.83,-10.3 -7.09,-18.84 c2.83,-6.47 8,-11 14,-14.58 a94.71,94.71 0 0 1 35.19,-13 a30.6,30.6 0 0 1 14.16,0.8500000000000001 c3.88,1.26 5.3,3.3200000000000003 5.3100000000000005,7.42 c0,5.1 -2,9.11 -6.62,11.41 A46.9,46.9 0 0 1 374,55.43 a5,5 0 0 1 -5.59,-1.6400000000000001 c-1.29,-1.7200000000000002 -0.8400000000000001,-3.56 -0.11000000000000001,-5.37 C368.39,48.11 368.51,47.8 368.86,46.93 zM212.79,56.48 l-0.36000000000000004,-0.35000000000000003 c-0.6800000000000002,0.3400000000000001 -1.37,0.6600000000000001 -2,1 C190,68.21 177.58,85.46 171.7,107.63 c-0.7500000000000001,2.83 -0.6500000000000001,5.91 -0.7400000000000001,8.88 c0,0.81 0.6700000000000002,1.6500000000000001 1,2.47 a9.1,9.1 0 0 0 2.22,-1.27 c1.79,-1.81 3.56,-3.66 5.17,-5.63 c11.17,-13.77 20.13,-28.93 28.05,-44.74 C209.25,63.730000000000004 211,60.099999999999994 212.79,56.48 zm78.13,-5.8100000000000005 a6.36,6.36 0 0 0 -1.48,0 a71.81,71.81 0 0 0 -8.22,2.55 C274.43,56.19 269,61 264.06,66.43 A77.14,77.14 0 0 0 246.85,97 a10.41,10.41 0 0 0 -0.22000000000000003,4.09 c0.26,2.09 1.6500000000000001,2.71 3.43,1.6 a20.37,20.37 0 0 0 3.44,-2.6100000000000003 c3.3200000000000003,-3.19 6.640000000000001,-6.38 9.81,-9.72 c5.52,-5.85 11.09,-11.67 15.21,-18.68 c3.85,-6.55 7.77,-13.06 11.66,-19.59 C290.42,51.72 290.61,51.28 290.92,50.67 z" id="svg_3"/><path class="cls-2" d="M368.83,159.9 c0.4,0.16000000000000003 0.78,0.33000000000000007 1.18,0.47000000000000003 a13.69,13.69 0 0 1 9.18,15.2 c-1,7.67 -5.8100000000000005,12.4 -14.05,13.7 a50.7,50.7 0 0 1 -7.28,0.6000000000000001 c-6.27,0.08000000000000002 -12.55,0 -18.82,0 h-1.9 V133.45 c0.52,0 1,-0.08000000000000002 1.49,-0.08000000000000002 c6.32,0 12.65,0 19,0 a25.16,25.16 0 0 1 11,2.23 c4.57,2.22 7.43,5.67 7.8100000000000005,10.91 c0.41000000000000003,5.59 -1.75,9.81 -6.62,12.620000000000001 q-0.44000000000000006,0.26 -0.8400000000000001,0.54 S368.9,159.77 368.83,159.9 zm-24.13,3.5700000000000003 v19.67 c0.46,0 0.78,0.09000000000000002 1.11,0.09000000000000002 c4.38,0 8.76,0.06000000000000001 13.14,-0.1 a24.84,24.84 0 0 0 6.36,-1 a8.43,8.43 0 0 0 6.25,-9.09 c-0.31000000000000005,-5 -2.42,-8 -7.2,-8.54 C357.89,163.77 351.35,163.78 344.7,163.47 zm-0.06000000000000001,-6.5 c5.2,0 10.19,0.11000000000000001 15.18,-0.06000000000000001 a18.5,18.5 0 0 0 5.3,-1.29 a5.7,5.7 0 0 0 3.38,-3.47 c2.19,-5.39 -0.39000000000000007,-10.75 -6.12,-11.41 s-11.620000000000001,-0.4 -17.43,-0.54 c-0.09000000000000002,0 -0.17,0.12000000000000001 -0.31000000000000005,0.23 z" id="svg_4"/><path class="cls-2" d="M237.71,189.81 V133.37 h1.61 c6.34,0 12.67,-0.05000000000000001 19,0 c4.49,0 8.85,0.7400000000000001 12.74,3.22 a13,13 0 0 1 0.39000000000000007,21.89 c-0.6400000000000001,0.43000000000000005 -1.3,0.8200000000000001 -2.1,1.33 a7.6,7.6 0 0 0 0.7500000000000001,0.38000000000000006 c8.4,2.47 11.44,10.72 9,18.73 c-1.7600000000000002,5.78 -6.16,8.64 -11.69,10 a33.42,33.42 0 0 1 -7.25,0.9400000000000001 c-7.11,0.12000000000000001 -14.22,0.05000000000000001 -21.33,0 C238.51,189.89 238.18,189.85 237.71,189.81 zm7.39,-16.3 c0,2.77 0,5.55 0,8.33 c0,0.9400000000000001 0.21000000000000002,1.4300000000000002 1.29,1.4100000000000001 c5.22,-0.11000000000000001 10.45,0 15.65,-0.33000000000000007 a15,15 0 0 0 6.54,-2.13 c3.7,-2.24 4,-6.06 3.33,-9.9 a7.37,7.37 0 0 0 -7.08,-6.45 c-6.24,-0.51 -12.52,-0.5 -18.79,-0.6100000000000001 c-0.30000000000000004,0 -0.8700000000000001,0.8700000000000001 -0.8800000000000001,1.34 C245.05,168 245.1,170.73 245.1,173.51 zm0,-16.47 h13.23 a12,12 0 0 0 2.3200000000000003,-0.11000000000000001 a36.61,36.61 0 0 0 5,-1.24 a6,6 0 0 0 3.63,-3.89 c1.9,-5.43 -0.6200000000000001,-10.37 -6.3100000000000005,-11.06 s-11.28,-0.47000000000000003 -16.93,-0.5900000000000001 a1.28,1.28 0 0 0 -0.8900000000000001,0.8700000000000001 C245.09,146.27 245.11,151.53 245.11,157 z" id="svg_5"/><path class="cls-2" d="M280,189.9 c1.8,-4.7 3.49,-9.14 5.19,-13.57 q8,-20.73 15.89,-41.45 a1.94,1.94 0 0 1 2.27,-1.54 a29,29 0 0 0 4.66,0 a2.07,2.07 0 0 1 2.42,1.6 q7.39,18.34 14.92,36.65 l7.45,18.29 c-2.79,0 -5.36,0.06000000000000001 -7.93,-0.06000000000000001 c-0.36000000000000004,0 -0.8200000000000001,-0.79 -1,-1.29 q-2.79,-7.22 -5.49,-14.45 a1.83,1.83 0 0 0 -2,-1.44 c-6.890000000000001,0.07 -13.77,0.06000000000000001 -20.66,0 a1.78,1.78 0 0 0 -2,1.4 c-1.6900000000000002,4.86 -3.5300000000000002,9.68 -5.23,14.54 a1.6600000000000001,1.6600000000000001 0 0 1 -1.92,1.33 C284.4,189.85 282.34,189.9 280,189.9 zm25.87,-48.78 l-0.42000000000000004,0 c-3.05,8.46 -6.11,16.92 -9.21,25.49 h19.32 C312.25,158 309,149.57 305.83,141.12 z" id="svg_6"/><path class="cls-2" d="M425.46,133.1 l-10.29,17.54 l-7.67,13.07 a22.69,22.69 0 0 0 -3.21,11.89 c0,2.55 0,5.1 0,7.7 c1.6,0.56 3.12,1.08 4.63,1.62 c2.87,1 3.31,1.7400000000000002 2.94,4.94 H389.29 c-0.6400000000000001,-2.45 0.12000000000000001,-4 2.41,-4.79 l0.16000000000000003,0 c1.6500000000000001,-0.6300000000000001 3.88,-0.8300000000000001 4.76,-2 s0.22000000000000003,-3.31 0.29000000000000004,-5 a28.13,28.13 0 0 0 -4.38,-16.27 c-5.42,-8.85 -10.55,-17.87 -15.81,-26.81 c-0.29000000000000004,-0.51 -0.5700000000000001,-1 -1,-1.75 a47.74,47.74 0 0 1 6.71,0.09000000000000002 a4.62,4.62 0 0 1 2.75,2.07 c4.09,6.73 8,13.55 12,20.34 c2,3.44 4.63,3.46 6.65,0 c4,-6.74 7.95,-13.47 11.86,-20.24 a4.15,4.15 0 0 1 4.05,-2.35 C421.56,133.14 423.33,133.1 425.46,133.1 z" id="svg_7"/><path class="cls-3" d="M391.32,138.57 a6.43,6.43 0 0 1 5.3100000000000005,0.28 a25.79,25.79 0 0 0 4.12,1.7400000000000002 c2.27,0.51 4.61,0.6700000000000002 6.92,1 L400.38,154 C397.28,148.71 394.34,143.71 391.32,138.57 z" id="svg_8"/><path class="cls-1" d="M212.79,56.48 c-1.78,3.62 -3.54,7.25 -5.35,10.86 c-7.92,15.81 -16.88,31 -28.05,44.74 c-1.61,2 -3.38,3.8200000000000003 -5.17,5.63 A9.1,9.1 0 0 1 172,119 c-0.37000000000000005,-0.8200000000000001 -1.06,-1.6600000000000001 -1,-2.47 c0.09000000000000002,-3 0,-6.05 0.7400000000000001,-8.88 c5.88,-22.17 18.28,-39.42 38.7,-50.48 c0.6600000000000001,-0.36000000000000004 1.35,-0.6800000000000002 2,-1 z" id="svg_9"/><path class="cls-1" d="M290.92,50.67 c-0.31000000000000005,0.6100000000000001 -0.5,1 -0.7400000000000001,1.46 c-3.89,6.53 -7.8100000000000005,13 -11.66,19.59 c-4.12,7 -9.69,12.83 -15.21,18.68 c-3.17,3.34 -6.49,6.53 -9.81,9.72 a20.37,20.37 0 0 1 -3.44,2.6100000000000003 c-1.78,1.11 -3.17,0.49000000000000005 -3.43,-1.6 a10.41,10.41 0 0 1 0.22000000000000003,-4.09 a77.14,77.14 0 0 1 17.21,-30.61 C269,61 274.43,56.19 281.22,53.24 a71.81,71.81 0 0 1 8.22,-2.55 A6.36,6.36 0 0 1 290.92,50.67 z" id="svg_10"/><path class="cls-1" d="M344.7,163.47 c6.65,0.31000000000000005 13.19,0.30000000000000004 19.66,1 c4.78,0.53 6.890000000000001,3.55 7.2,8.54 a8.43,8.43 0 0 1 -6.25,9.09 a24.84,24.84 0 0 1 -6.36,1 c-4.38,0.16000000000000003 -8.76,0.09000000000000002 -13.14,0.1 c-0.33000000000000007,0 -0.6500000000000001,0 -1.11,-0.09000000000000002 z" id="svg_11"/><path class="cls-1" d="M344.64,157 V140.43 c0.14,-0.11000000000000001 0.22000000000000003,-0.23 0.31000000000000005,-0.23 c5.8100000000000005,0.14 11.67,-0.12000000000000001 17.43,0.54 s8.31,6 6.12,11.41 a5.7,5.7 0 0 1 -3.38,3.47 a18.5,18.5 0 0 1 -5.3,1.29 C354.83,157.08 349.84,157 344.64,157 z" id="svg_12"/><path class="cls-1" d="M245.1,173.51 c0,-2.7800000000000002 0,-5.5600000000000005 0,-8.34 c0,-0.47000000000000003 0.5800000000000001,-1.34 0.8800000000000001,-1.34 c6.27,0.11000000000000001 12.55,0.1 18.79,0.6100000000000001 a7.37,7.37 0 0 1 7.08,6.45 c0.6500000000000001,3.84 0.37000000000000005,7.66 -3.33,9.9 a15,15 0 0 1 -6.54,2.13 c-5.2,0.37000000000000005 -10.43,0.22000000000000003 -15.65,0.33000000000000007 c-1.08,0 -1.3,-0.47000000000000003 -1.29,-1.4100000000000001 C245.12,179.06 245.1,176.28 245.1,173.51 z" id="svg_13"/><path class="cls-1" d="M245.11,157 c0,-5.51 0,-10.77 0,-16 a1.28,1.28 0 0 1 0.8900000000000001,-0.8700000000000001 c5.65,0.12000000000000001 11.34,-0.09000000000000002 16.93,0.5900000000000001 s8.21,5.63 6.3100000000000005,11.06 a6,6 0 0 1 -3.63,3.89 a36.61,36.61 0 0 1 -5,1.24 a12,12 0 0 1 -2.3200000000000003,0.11000000000000001 z" id="svg_14"/><path class="cls-1" d="M305.83,141.12 c3.21,8.45 6.42,16.9 9.69,25.53 H296.2 c3.1,-8.57 6.16,-17 9.21,-25.49 z" id="svg_15"/></g></svg>