<svg version="1.1" id="Layer_1" xmlns="http://www.w3.org/2000/svg" xmlns:xlink="http://www.w3.org/1999/xlink" x="0px" y="0px"
	 viewBox="0 0 435 197.67" xml:space="preserve">
<style type="text/css">
	.st0{fill:#FFFFFF;}
	.st1{fill:#ADADAD;}
</style>
<path class="st0" d="M49,197.67c-14.67,0-29.33,0-44,0C5,133.11,5,68.56,5,4c141.89,0,283.78,0,425.67,0c0,64.56,0,129.11,0,193.67
	c-127,0-254,0-381,0c7.91-1.3,13.16-6.59,17.98-12.32c2.52-3,4.75-6.3,6.71-9.71c7.83-13.64,13.03-28.38,17.57-43.36
	c4.16-13.75,7.24-27.76,9.58-41.92c1.34-8.09,2.49-16.22,3.32-24.37c0.71-7,1-14.06,1.17-21.1c0.23-9.49,0.24-18.98-1.39-28.39
	c-0.65-3.75-1.88-7.16-4.81-9.8c-3.08-2.78-6.27-3.05-9.64-0.68c-4.6,3.25-7.91,7.58-10.47,12.53c-0.22,0.42-0.41,0.99-0.3,1.41
	c0.14,0.53,0.52,1.09,0.97,1.41c0.18,0.13,0.84-0.29,1.2-0.57c0.48-0.37,0.89-0.83,1.31-1.28c0.94-0.98,1.79-0.84,2.39,0.31
	c0.58,1.13,1.13,2.3,1.49,3.51c1.79,6.03,1.72,12.24,1.73,18.46c0.03,11.8-1.24,23.49-3.17,35.09c-2.28,13.71-4.8,27.38-7.6,40.99
	c-3.1,15.12-7.49,29.89-14.33,43.79c-2.24,4.55-4.84,8.99-7.75,13.14c-2.19,3.12-5.18,2.53-6.86-0.93c-0.38-0.79-0.69-1.66-0.8-2.52
	c-0.39-3.08-1-6.17-0.96-9.25c0.19-14.87,0.45-29.75,0.91-44.62c0.38-12.37,1.12-24.72,1.63-37.09c0.52-12.59,0.92-25.18,1.43-37.77
	c0.1-2.49-0.2-4.81-1.22-7.12c-0.58-1.31-1.4-2.01-2.71-2.07c-5.19-0.25-9.93,1.05-13.83,4.6c-1.06,0.96-2.01,2.33-2.4,3.69
	c-3.65,12.8-9.04,24.88-14.8,36.82c-0.85,1.76-2.2,3.32-3.49,4.83c-0.46,0.54-1.42,0.65-2.15,0.95c-0.25-0.68-0.52-1.37-0.76-2.06
	c-0.21-0.59-0.38-1.2-0.58-1.79c-0.59,0.34-1.22,0.64-1.77,1.05c-0.29,0.22-0.5,0.6-0.65,0.95c-2.28,5.51-2.05,13.04,5.06,16.88
	c2.98,1.61,5.82,1.57,8.55-0.54c3.68-2.84,6.56-6.36,8.27-10.67c2.06-5.2,3.86-10.5,5.77-15.76c0.24-0.67,0.51-1.33,0.76-2
	c-0.16,3.83-0.68,7.55-1.12,11.28c-0.76,6.55-1.55,13.1-2.15,19.66c-0.5,5.47-0.73,10.96-1.13,16.44
	c-0.48,6.64-1.21,13.26-1.48,19.91c-0.28,6.81-0.22,13.65-0.19,20.47c0.03,8.13,0.87,16.15,3.42,23.93
	c1.89,5.77,4.85,10.77,10.5,13.57C44.79,196.6,46.96,197.01,49,197.67z M373.86,50.93c-0.35,0.88-0.47,1.18-0.6,1.49
	c-0.73,1.81-1.18,3.65,0.11,5.37c1.42,1.9,3.59,2.19,5.58,1.64c2.86-0.79,5.67-1.89,8.33-3.21c4.64-2.3,6.63-6.31,6.62-11.41
	c-0.01-4.1-1.43-6.16-5.31-7.42c-4.64-1.51-9.42-1.55-14.16-0.85c-12.62,1.86-24.3,6.41-35.19,12.96
	c-5.94,3.57-11.13,8.11-13.96,14.58c-3.74,8.54-1.78,15.2,7.09,18.84c0.87,0.36,1.74,0.73,2.65,0.99
	c5.11,1.47,10.24,2.86,15.34,4.36c2.81,0.83,5.65,1.64,8.35,2.76c2.91,1.2,3.12,3.32,0.67,5.34c-1.1,0.9-2.36,1.69-3.65,2.29
	c-7.29,3.4-15.03,4.51-23,4.33c-0.93-0.02-1.95-0.49-2.73-1.03c-1.79-1.24-2.59-3.02-2.73-5.24c-0.24-3.7-0.64-7.39-1.17-11.06
	c-0.12-0.82-0.91-1.84-1.67-2.2c-1.11-0.53-2.1,0.21-2.8,1.21c-0.51,0.73-1.05,1.44-1.6,2.13c-2.83,3.56-5.48,7.3-8.58,10.61
	c-2.16,2.31-4.77,4.35-7.51,5.96c-3.13,1.84-5.35,0.57-5.6-3.07c-0.18-2.68-0.09-5.47,0.46-8.08c3.07-14.56,8.05-28.44,15.32-41.46
	c1.79-3.2,0.24-6.91-3.36-7.38c-5.45-0.71-8.4,0.32-10.58,4.5c-0.17,0.33-0.41,0.63-0.69,1.06c-2.49-3.49-5.99-4.48-9.94-4.51
	c-6.8-0.06-12.81,2.34-18.44,5.87c-7.91,4.95-14.4,11.46-20.24,18.66c-6.41,7.91-11.18,16.64-13.17,26.74
	c-0.11,0.54-0.54,1.09-0.96,1.5c-8.78,8.65-16.35,18.29-23.49,28.29c-0.26,0.36-0.57,0.69-0.86,1.04c-0.13-0.69-0.03-1.22,0.14-1.73
	c5.19-16.25,10.21-32.56,15.66-48.72c2.97-8.8,6.69-17.35,10.03-26.03c0.2-0.51,0.26-1.22,0.05-1.7c-0.43-1.01-0.98-2.01-1.67-2.86
	c-0.4-0.49-1.22-1.05-1.75-0.97c-4.07,0.62-8.14,1.36-11.15,4.57c-0.82,0.87-1.49,1.89-2.3,2.93c-2.66-2.45-5.79-2.36-8.81-1.35
	c-3.24,1.08-6.48,2.36-9.44,4.04c-9.77,5.55-17.45,13.47-24.32,22.22c-7.37,9.38-13.3,19.52-15.94,31.32
	c-0.2,0.91-0.32,1.92-0.8,2.68c-4.17,6.55-8.2,13.21-12.7,19.53c-4.77,6.7-11.34,10.84-19.67,11.8c-2.68,0.31-5.05-0.33-6.77-2.65
	c-1.69-2.27-0.72-4.4,0.44-6.35c4.23-7.14,9.16-13.74,15.29-19.42c1.86-1.73,3.23-4.04,4.58-6.23c0.43-0.69,0.41-2.06,0.01-2.8
	c-1.91-3.57-5.82-4.57-9.18-2.4c-1.95,1.26-3.7,2.84-5.63,4.15c-1.46,0.99-2.98,1.93-4.59,2.64c-1.63,0.72-2.31,0.1-1.96-1.69
	c0.21-1.07,0.55-2.17,1.07-3.12c3.62-6.66,7.78-12.94,13.27-18.24c0.46-0.44,1-0.81,1.63-1.33c0.28,0.97,0.46,1.71,0.7,2.44
	c0.95,2.9,2.2,3.49,4.99,2.36c6.36-2.57,10.73-9.9,9.98-16.73c-0.48-4.36-2.09-5.92-6.49-5.74c-2.06,0.08-4.21,0.46-6.12,1.23
	c-8.37,3.38-14.94,9.24-21.03,15.72c-4.34,4.62-7.85,9.74-10.05,15.74c-2.3,6.24-1.92,12.14,1.57,17.85
	c1.34,2.2,3.15,3.52,5.67,3.91c0.34,0.05,0.67,0.16,1.01,0.24c0.1,0.16,0.19,0.32,0.29,0.48c-0.46,0.3-0.98,0.54-1.37,0.92
	c-3.58,3.39-6.72,7.08-8.42,11.82c-2.71,7.58,0.48,18.17,10.92,20.45c4.31,0.94,8.58,0.65,12.85-0.35
	c11.98-2.81,21.01-9.93,28.4-19.43c0.98-1.26,1.93-2.53,2.97-3.89c0.31,0.42,0.52,0.67,0.7,0.94c2.06,3.15,5.01,4.45,8.72,4.6
	c5.14,0.21,9.39-1.58,13.15-4.98c7.33-6.61,13.18-14.4,18.31-22.76c0.41-0.66,0.84-1.31,1.27-1.96c0.16,0.58,0.05,1-0.09,1.41
	c-2.77,8.07-5.63,16.11-8.28,24.21c-1.4,4.27-3.5,8.03-6.15,11.67c-4.27,5.87-8.25,11.96-12.03,18.16
	c-3.49,5.72-5.57,11.99-4.94,18.84c0.58,6.32,3.18,11.29,11.02,10.36c4.49-0.53,7.04-2.46,8.4-6.61
	c4.16-12.69,9.67-24.79,16.18-36.42c6.31-11.27,14.66-21.01,23.45-30.39c1.66-1.77,3.33-3.53,5.12-5.42
	c0.45,0.75,0.77,1.32,1.13,1.86c2.88,4.46,6.86,6.9,12.29,6.99c4.84,0.07,8.79-2.06,12.54-4.7c7.62-5.37,13.92-12.04,19.13-19.76
	c0.43-0.64,0.92-1.25,1.38-1.88c0.19,0.53,0.11,0.9,0.04,1.27c-0.08,0.44-0.17,0.87-0.22,1.31c-0.64,5.82-0.08,11.32,4.18,15.85
	c1.99,2.12,4.43,3.23,7.3,3.57c6.37,0.74,11.59-1.77,16.34-5.66c1.02-0.84,2.02-1.7,3.13-2.63c1.66,3.25,4.09,5.42,7.43,6.46
	c5.39,1.69,10.94,1.9,16.48,1.31c7.86-0.83,15.17-3.63,22.24-7.04c5.18-2.5,9.71-5.87,12.94-10.71c4.41-6.62,3.1-13.81-3.39-18.36
	c-2.02-1.42-4.24-2.77-6.57-3.5c-6.71-2.09-13.52-3.85-20.29-5.74c-1.86-0.52-3.75-0.98-5.57-1.61c-1.36-0.47-1.57-1.52-0.74-2.65
	c0.62-0.84,1.33-1.65,2.12-2.34c7.51-6.61,16.13-11.14,25.86-13.46C368.68,51.46,371.1,51.31,373.86,50.93z M373.83,163.9
	c0.07-0.13,0.09-0.2,0.13-0.23c0.28-0.18,0.55-0.37,0.84-0.54c4.88-2.81,7.03-7.03,6.62-12.62c-0.38-5.24-3.24-8.69-7.81-10.91
	c-3.47-1.69-7.2-2.2-10.99-2.22c-6.33-0.05-12.66-0.01-18.99-0.01c-0.48,0-0.97,0.05-1.48,0.07c0,18.84,0,37.57,0,56.45
	c0.7,0,1.3,0,1.9,0c6.27,0,12.55,0.05,18.82-0.03c2.43-0.03,4.88-0.22,7.28-0.6c8.24-1.31,13.02-6.03,14.04-13.7
	c0.92-6.91-2.66-12.84-9.18-15.2C374.61,164.23,374.23,164.06,373.83,163.9z M242.71,193.81c0.47,0.04,0.8,0.08,1.12,0.08
	c7.11,0,14.22,0.08,21.33-0.04c2.42-0.04,4.89-0.37,7.24-0.94c5.53-1.33,9.93-4.2,11.69-9.97c2.44-8.01-0.6-16.26-9-18.73
	c-0.23-0.07-0.43-0.22-0.75-0.38c0.79-0.5,1.46-0.89,2.09-1.33c7.84-5.38,7.64-16.77-0.39-21.88c-3.89-2.48-8.25-3.18-12.74-3.22
	c-6.33-0.07-12.67-0.02-19-0.02c-0.53,0-1.06,0-1.61,0C242.71,156.29,242.71,174.95,242.71,193.81z M284.96,193.9
	c2.38,0,4.43-0.05,6.48,0.02c1.05,0.04,1.55-0.29,1.91-1.33c1.7-4.86,3.54-9.68,5.24-14.55c0.38-1.1,0.93-1.4,2.04-1.4
	c6.88,0.05,13.77,0.06,20.65-0.01c1.16-0.01,1.65,0.4,2.04,1.43c1.79,4.83,3.63,9.65,5.49,14.45c0.2,0.51,0.66,1.28,1.02,1.3
	c2.57,0.11,5.14,0.06,7.93,0.06c-2.57-6.31-5.01-12.3-7.46-18.29c-4.98-12.21-9.99-24.41-14.91-36.65c-0.5-1.25-1.1-1.7-2.42-1.6
	c-1.54,0.12-3.11,0.13-4.66,0c-1.28-0.1-1.83,0.38-2.28,1.54c-5.27,13.83-10.59,27.63-15.89,41.44
	C288.45,184.76,286.76,189.2,284.96,193.9z M430.46,137.1c-2.13,0-3.9,0.04-5.66-0.01c-1.86-0.06-3.1,0.71-4.05,2.34
	c-3.91,6.77-7.9,13.51-11.86,20.25c-2.02,3.43-4.63,3.41-6.65-0.03c-3.99-6.79-7.94-13.61-12.03-20.34
	c-0.56-0.93-1.74-1.91-2.75-2.06c-2.1-0.32-4.28-0.1-6.71-0.1c0.4,0.72,0.67,1.24,0.97,1.75c5.25,8.95,10.39,17.96,15.81,26.81
	c3.1,5.06,4.62,10.39,4.38,16.27c-0.07,1.72,0.55,3.9-0.29,5.03c-0.88,1.19-3.12,1.39-4.76,2.02c-0.05,0.02-0.11,0.03-0.16,0.05
	c-2.29,0.82-3.05,2.34-2.41,4.79c7.54,0,15.07,0,22.58,0c0.37-3.2-0.07-3.92-2.95-4.94c-1.51-0.54-3.03-1.06-4.63-1.62
	c0-2.6,0.02-5.15,0-7.7c-0.04-4.27,1.05-8.22,3.21-11.89c2.56-4.35,5.11-8.71,7.67-13.06C423.53,148.91,426.9,143.17,430.46,137.1z
	 M396.32,142.57c3.03,5.14,5.97,10.14,9.06,15.4c2.6-4.43,5.05-8.6,7.29-12.4c-2.31-0.3-4.65-0.46-6.92-0.97
	c-1.43-0.32-2.74-1.17-4.12-1.74C399.96,142.17,398.26,141.73,396.32,142.57z"/>
<path class="st0" d="M49,197.67c-2.04-0.66-4.21-1.07-6.11-2.01c-5.65-2.8-8.61-7.79-10.5-13.57c-2.55-7.78-3.4-15.8-3.42-23.93
	c-0.02-6.82-0.09-13.66,0.19-20.47c0.28-6.65,1-13.27,1.48-19.91c0.4-5.48,0.63-10.97,1.13-16.44c0.6-6.56,1.4-13.11,2.15-19.66
	c0.43-3.73,0.96-7.45,1.12-11.28c-0.26,0.67-0.52,1.33-0.76,2c-1.91,5.26-3.71,10.56-5.77,15.76c-1.71,4.31-4.59,7.83-8.27,10.67
	c-2.73,2.1-5.57,2.15-8.55,0.54c-7.1-3.84-7.34-11.36-5.06-16.88c0.15-0.35,0.36-0.74,0.65-0.95c0.55-0.41,1.17-0.7,1.77-1.05
	c0.19,0.6,0.37,1.2,0.58,1.79c0.24,0.69,0.5,1.37,0.76,2.06c0.73-0.3,1.69-0.41,2.15-0.95c1.29-1.51,2.64-3.06,3.49-4.83
	c5.77-11.93,11.16-24.02,14.8-36.82c0.39-1.36,1.34-2.73,2.4-3.69c3.9-3.54,8.64-4.84,13.83-4.6c1.3,0.06,2.13,0.76,2.71,2.07
	c1.02,2.3,1.33,4.63,1.22,7.12c-0.51,12.59-0.92,25.18-1.43,37.77c-0.51,12.36-1.24,24.72-1.63,37.09
	c-0.46,14.87-0.72,29.74-0.91,44.62c-0.04,3.08,0.57,6.17,0.96,9.25c0.11,0.86,0.41,1.74,0.8,2.52c1.69,3.46,4.68,4.06,6.86,0.93
	c2.91-4.16,5.51-8.59,7.75-13.14c6.84-13.9,11.23-28.67,14.33-43.79c2.79-13.61,5.32-27.28,7.6-40.99
	c1.93-11.6,3.2-23.29,3.17-35.09c-0.02-6.22,0.06-12.43-1.73-18.46c-0.36-1.21-0.91-2.38-1.49-3.51c-0.59-1.15-1.45-1.29-2.39-0.31
	c-0.42,0.44-0.83,0.91-1.31,1.28c-0.36,0.28-1.02,0.69-1.2,0.57c-0.44-0.32-0.83-0.88-0.97-1.41c-0.11-0.42,0.08-0.99,0.3-1.41
	c2.55-4.95,5.86-9.28,10.47-12.53c3.37-2.38,6.56-2.1,9.64,0.68c2.93,2.64,4.16,6.05,4.81,9.8c1.63,9.41,1.62,18.9,1.39,28.39
	c-0.17,7.04-0.46,14.1-1.17,21.1c-0.82,8.15-1.98,16.28-3.32,24.37c-2.34,14.16-5.42,28.17-9.58,41.92
	c-4.54,14.99-9.73,29.72-17.57,43.36c-1.95,3.4-4.19,6.71-6.71,9.71c-4.82,5.73-10.07,11.02-17.98,12.32
	C49.44,197.67,49.22,197.67,49,197.67z"/>
<path class="st0" d="M373.86,50.93c-2.76,0.39-5.18,0.53-7.51,1.09c-9.73,2.33-18.35,6.85-25.86,13.46
	c-0.79,0.69-1.49,1.5-2.12,2.34c-0.84,1.13-0.62,2.17,0.74,2.65c1.82,0.63,3.71,1.09,5.57,1.61c6.77,1.89,13.58,3.65,20.29,5.74
	c2.33,0.73,4.55,2.08,6.57,3.5c6.49,4.55,7.8,11.74,3.39,18.36c-3.23,4.84-7.76,8.21-12.94,10.71c-7.07,3.41-14.38,6.21-22.24,7.04
	c-5.54,0.58-11.09,0.38-16.48-1.31c-3.34-1.05-5.78-3.21-7.43-6.46c-1.11,0.93-2.11,1.79-3.13,2.63c-4.75,3.89-9.97,6.4-16.34,5.66
	c-2.87-0.34-5.31-1.45-7.3-3.57c-4.26-4.53-4.81-10.04-4.18-15.85c0.05-0.44,0.14-0.88,0.22-1.31c0.07-0.37,0.15-0.74-0.04-1.27
	c-0.46,0.63-0.94,1.24-1.38,1.88c-5.21,7.72-11.51,14.39-19.13,19.76c-3.75,2.64-7.7,4.78-12.54,4.7
	c-5.43-0.08-9.41-2.53-12.29-6.99c-0.35-0.54-0.67-1.11-1.13-1.86c-1.79,1.9-3.46,3.65-5.12,5.42
	c-8.79,9.38-17.14,19.13-23.45,30.39c-6.51,11.63-12.02,23.73-16.18,36.42c-1.36,4.15-3.91,6.08-8.4,6.61
	c-7.84,0.92-10.44-4.04-11.02-10.36c-0.63-6.85,1.45-13.11,4.94-18.84c3.78-6.2,7.76-12.29,12.03-18.16
	c2.65-3.64,4.75-7.4,6.15-11.67c2.65-8.11,5.51-16.14,8.28-24.21c0.14-0.41,0.24-0.83,0.09-1.41c-0.42,0.65-0.86,1.3-1.27,1.96
	c-5.14,8.37-10.98,16.15-18.31,22.76c-3.77,3.4-8.01,5.19-13.15,4.98c-3.71-0.15-6.66-1.45-8.72-4.6c-0.18-0.27-0.39-0.52-0.7-0.94
	c-1.04,1.36-1.99,2.63-2.97,3.89c-7.39,9.51-16.42,16.62-28.4,19.43c-4.27,1-8.54,1.3-12.85,0.35
	c-10.44-2.28-13.63-12.87-10.92-20.45c1.7-4.74,4.84-8.43,8.42-11.82c0.39-0.37,0.91-0.61,1.37-0.92c-0.1-0.16-0.19-0.32-0.29-0.48
	c-0.34-0.08-0.67-0.19-1.01-0.24c-2.52-0.39-4.33-1.72-5.67-3.91c-3.49-5.72-3.87-11.62-1.57-17.85c2.21-6,5.71-11.11,10.05-15.74
	c6.09-6.48,12.66-12.34,21.03-15.72c1.9-0.77,4.06-1.15,6.12-1.23c4.4-0.18,6.01,1.38,6.49,5.74c0.75,6.83-3.62,14.15-9.98,16.73
	c-2.79,1.13-4.03,0.54-4.99-2.36c-0.24-0.73-0.42-1.47-0.7-2.44c-0.64,0.52-1.17,0.89-1.63,1.33c-5.5,5.3-9.66,11.58-13.27,18.24
	c-0.52,0.96-0.86,2.05-1.07,3.12c-0.35,1.79,0.32,2.41,1.96,1.69c1.61-0.71,3.13-1.65,4.59-2.64c1.92-1.31,3.67-2.88,5.63-4.15
	c3.36-2.18,7.27-1.17,9.18,2.4c0.4,0.75,0.42,2.11-0.01,2.8c-1.35,2.19-2.72,4.5-4.58,6.23c-6.13,5.69-11.05,12.28-15.29,19.42
	c-1.16,1.95-2.13,4.08-0.44,6.35c1.72,2.32,4.09,2.96,6.77,2.65c8.32-0.96,14.9-5.1,19.67-11.8c4.5-6.32,8.53-12.98,12.7-19.53
	c0.48-0.76,0.6-1.77,0.8-2.68c2.64-11.8,8.57-21.94,15.94-31.32c6.87-8.75,14.55-16.67,24.32-22.22c2.96-1.68,6.2-2.95,9.44-4.04
	c3.02-1.01,6.14-1.1,8.81,1.35c0.81-1.04,1.48-2.05,2.3-2.93c3.01-3.21,7.08-3.95,11.15-4.57c0.54-0.08,1.35,0.48,1.75,0.97
	c0.69,0.85,1.24,1.85,1.67,2.86c0.2,0.48,0.14,1.19-0.05,1.7c-3.34,8.68-7.06,17.22-10.03,26.03
	c-5.45,16.16-10.47,32.47-15.66,48.72c-0.16,0.51-0.27,1.04-0.14,1.73c0.29-0.35,0.6-0.67,0.86-1.04
	c7.14-10,14.72-19.64,23.49-28.29c0.42-0.41,0.85-0.95,0.96-1.5c2-10.1,6.76-18.83,13.17-26.74c5.84-7.2,12.33-13.71,20.24-18.66
	c5.63-3.52,11.65-5.93,18.44-5.87c3.95,0.04,7.46,1.03,9.94,4.51c0.28-0.43,0.52-0.73,0.69-1.06c2.18-4.18,5.13-5.21,10.58-4.5
	c3.6,0.47,5.15,4.18,3.36,7.38c-7.27,13.02-12.25,26.9-15.32,41.46c-0.55,2.62-0.65,5.41-0.46,8.08c0.25,3.64,2.47,4.91,5.6,3.07
	c2.73-1.61,5.34-3.65,7.51-5.96c3.1-3.31,5.75-7.05,8.58-10.61c0.55-0.7,1.09-1.4,1.6-2.13c0.7-1,1.69-1.74,2.8-1.21
	c0.75,0.36,1.55,1.38,1.67,2.2c0.53,3.67,0.93,7.36,1.17,11.06c0.15,2.23,0.94,4,2.73,5.24c0.79,0.54,1.81,1.01,2.73,1.03
	c7.96,0.18,15.71-0.93,23-4.33c1.29-0.6,2.55-1.39,3.65-2.29c2.46-2.01,2.24-4.13-0.67-5.34c-2.7-1.12-5.54-1.93-8.35-2.76
	c-5.1-1.5-10.23-2.89-15.34-4.36c-0.9-0.26-1.78-0.63-2.65-0.99c-8.87-3.64-10.83-10.3-7.09-18.84c2.84-6.47,8.03-11.01,13.96-14.58
	c10.89-6.55,22.57-11.1,35.19-12.96c4.74-0.7,9.52-0.67,14.16,0.85c3.88,1.26,5.3,3.32,5.31,7.42c0.02,5.1-1.98,9.11-6.62,11.41
	c-2.66,1.32-5.47,2.42-8.33,3.21c-1.99,0.55-4.16,0.26-5.58-1.64c-1.29-1.72-0.84-3.57-0.11-5.37
	C373.39,52.11,373.51,51.8,373.86,50.93z M217.79,60.48c-0.12-0.12-0.24-0.24-0.36-0.35c-0.68,0.34-1.36,0.66-2.03,1.02
	c-20.42,11.06-32.82,28.31-38.7,50.48c-0.75,2.83-0.64,5.91-0.74,8.88c-0.03,0.81,0.67,1.65,1.04,2.47
	c0.75-0.41,1.64-0.68,2.22-1.27c1.79-1.81,3.57-3.66,5.17-5.64c11.17-13.77,20.13-28.93,28.05-44.74
	C214.25,67.73,216.01,64.1,217.79,60.48z M295.92,54.67c-0.64,0-1.09-0.1-1.48,0.02c-2.75,0.81-5.6,1.42-8.22,2.56
	c-6.8,2.95-12.22,7.78-17.16,13.19c-8.1,8.87-13.83,19.09-17.21,30.6c-0.38,1.28-0.38,2.75-0.22,4.09c0.25,2.09,1.65,2.71,3.43,1.61
	c1.22-0.76,2.41-1.62,3.44-2.61c3.32-3.19,6.65-6.38,9.81-9.73c5.53-5.85,11.1-11.66,15.21-18.67c3.85-6.55,7.77-13.06,11.66-19.59
	C295.42,55.72,295.61,55.28,295.92,54.67z"/>
<path class="st0" d="M373.83,163.9c0.4,0.16,0.78,0.33,1.18,0.47c6.52,2.36,10.1,8.29,9.18,15.2c-1.03,7.67-5.81,12.4-14.04,13.7
	c-2.4,0.38-4.85,0.57-7.28,0.6c-6.27,0.08-12.55,0.03-18.82,0.03c-0.6,0-1.2,0-1.9,0c0-18.88,0-37.61,0-56.45
	c0.52-0.03,1-0.07,1.48-0.07c6.33,0,12.66-0.04,18.99,0.01c3.8,0.03,7.52,0.54,10.99,2.22c4.58,2.22,7.43,5.68,7.81,10.91
	c0.41,5.59-1.75,9.81-6.62,12.62c-0.29,0.17-0.56,0.35-0.84,0.54C373.92,163.7,373.9,163.77,373.83,163.9z M349.7,167.47
	c0,6.92,0,13.26,0,19.67c0.46,0.04,0.78,0.09,1.11,0.09c4.38-0.02,8.77,0.06,13.14-0.11c2.14-0.08,4.33-0.38,6.36-1
	c4.31-1.33,6.51-4.73,6.25-9.09c-0.31-4.99-2.41-8.01-7.2-8.54C362.89,167.77,356.35,167.78,349.7,167.47z M349.64,160.97
	c5.2,0,10.19,0.11,15.18-0.06c1.78-0.06,3.58-0.69,5.3-1.29c1.64-0.57,2.72-1.86,3.38-3.48c2.19-5.39-0.4-10.75-6.12-11.41
	c-5.76-0.66-11.62-0.41-17.43-0.54c-0.08,0-0.17,0.13-0.31,0.24C349.64,149.87,349.64,155.35,349.64,160.97z"/>
<path class="st0" d="M242.71,193.81c0-18.86,0-37.52,0-56.44c0.56,0,1.08,0,1.61,0c6.33,0,12.67-0.05,19,0.02
	c4.49,0.05,8.85,0.75,12.74,3.22c8.02,5.12,8.23,16.5,0.39,21.88c-0.64,0.44-1.3,0.83-2.09,1.33c0.32,0.17,0.52,0.32,0.75,0.38
	c8.4,2.47,11.44,10.72,9,18.73c-1.76,5.77-6.16,8.64-11.69,9.97c-2.36,0.57-4.82,0.9-7.24,0.94c-7.11,0.12-14.22,0.04-21.33,0.04
	C243.51,193.89,243.18,193.85,242.71,193.81z M250.1,177.51c0,2.78,0.02,5.56-0.01,8.33c-0.01,0.94,0.21,1.44,1.29,1.41
	c5.22-0.11,10.45,0.04,15.65-0.33c2.23-0.16,4.62-0.96,6.54-2.13c3.71-2.25,3.99-6.06,3.34-9.9c-0.66-3.91-3.38-6.15-7.09-6.45
	c-6.24-0.5-12.52-0.49-18.78-0.61c-0.3-0.01-0.87,0.87-0.89,1.34C250.05,171.95,250.1,174.73,250.1,177.51z M250.11,161.04
	c4.58,0,8.91,0,13.23,0c0.78,0,1.57,0.04,2.32-0.11c1.67-0.34,3.37-0.67,4.98-1.24c1.82-0.64,2.99-2.06,3.63-3.88
	c1.9-5.44-0.62-10.37-6.31-11.06c-5.59-0.68-11.28-0.47-16.93-0.59c-0.3-0.01-0.88,0.56-0.88,0.86
	C250.09,150.27,250.11,155.53,250.11,161.04z"/>
<path class="st0" d="M284.96,193.9c1.79-4.7,3.48-9.14,5.18-13.57c5.3-13.81,10.62-27.62,15.89-41.44c0.44-1.16,1-1.65,2.28-1.54
	c1.54,0.13,3.11,0.12,4.66,0c1.32-0.1,1.92,0.35,2.42,1.6c4.93,12.23,9.93,24.44,14.91,36.65c2.45,5.99,4.89,11.99,7.46,18.29
	c-2.79,0-5.36,0.05-7.93-0.06c-0.37-0.02-0.83-0.79-1.02-1.3c-1.86-4.8-3.7-9.62-5.49-14.45c-0.38-1.03-0.88-1.44-2.04-1.43
	c-6.88,0.06-13.77,0.05-20.65,0.01c-1.11-0.01-1.66,0.29-2.04,1.4c-1.7,4.87-3.54,9.68-5.24,14.55c-0.36,1.03-0.86,1.36-1.91,1.33
	C289.4,193.85,287.34,193.9,284.96,193.9z M310.83,145.12c-0.14,0.01-0.28,0.02-0.42,0.04c-3.06,8.46-6.12,16.92-9.21,25.49
	c6.52,0,12.8,0,19.32,0C317.25,162.02,314.04,153.57,310.83,145.12z"/>
<path class="st0" d="M430.46,137.1c-3.56,6.07-6.93,11.8-10.3,17.54c-2.56,4.35-5.11,8.71-7.67,13.06
	c-2.16,3.67-3.24,7.63-3.21,11.89c0.02,2.55,0,5.1,0,7.7c1.6,0.56,3.12,1.09,4.63,1.62c2.88,1.02,3.31,1.74,2.95,4.94
	c-7.52,0-15.05,0-22.58,0c-0.64-2.45,0.12-3.96,2.41-4.79c0.05-0.02,0.11-0.03,0.16-0.05c1.64-0.63,3.88-0.83,4.76-2.02
	c0.83-1.13,0.22-3.31,0.29-5.03c0.24-5.89-1.28-11.21-4.38-16.27c-5.42-8.85-10.56-17.86-15.81-26.81c-0.3-0.51-0.57-1.03-0.97-1.75
	c2.43,0,4.61-0.22,6.71,0.1c1.01,0.15,2.19,1.13,2.75,2.06c4.09,6.73,8.04,13.55,12.03,20.34c2.02,3.44,4.63,3.46,6.65,0.03
	c3.97-6.74,7.95-13.47,11.86-20.25c0.94-1.63,2.18-2.4,4.05-2.34C426.56,137.14,428.33,137.1,430.46,137.1z"/>
<path class="st1" d="M396.32,142.57c1.94-0.84,3.64-0.4,5.31,0.29c1.38,0.57,2.69,1.42,4.12,1.74c2.27,0.5,4.61,0.66,6.92,0.97
	c-2.24,3.81-4.69,7.98-7.29,12.4C402.28,152.71,399.34,147.71,396.32,142.57z"/>
<path class="st0" d="M217.79,60.48c-1.78,3.62-3.54,7.25-5.35,10.86c-7.92,15.81-16.88,30.97-28.05,44.74
	c-1.6,1.98-3.38,3.83-5.17,5.64c-0.58,0.58-1.47,0.85-2.22,1.27c-0.37-0.82-1.06-1.66-1.04-2.47c0.09-2.97-0.01-6.05,0.74-8.88
	c5.88-22.17,18.28-39.42,38.7-50.48c0.66-0.36,1.35-0.68,2.03-1.02C217.55,60.25,217.67,60.37,217.79,60.48z"/>
<path class="st0" d="M295.92,54.67c-0.31,0.6-0.5,1.05-0.75,1.46c-3.88,6.53-7.81,13.04-11.66,19.59
	c-4.12,7.01-9.69,12.83-15.21,18.67c-3.16,3.34-6.49,6.53-9.81,9.73c-1.03,0.99-2.22,1.86-3.44,2.61c-1.78,1.1-3.18,0.48-3.43-1.61
	c-0.16-1.34-0.16-2.81,0.22-4.09c3.38-11.51,9.12-21.73,17.21-30.6c4.94-5.41,10.36-10.24,17.16-13.19
	c2.62-1.14,5.47-1.74,8.22-2.56C294.83,54.58,295.28,54.67,295.92,54.67z"/>
<path class="st0" d="M349.7,167.47c6.65,0.31,13.19,0.3,19.66,1.02c4.78,0.53,6.89,3.55,7.2,8.54c0.27,4.36-1.94,7.76-6.25,9.09
	c-2.03,0.63-4.23,0.92-6.36,1c-4.38,0.17-8.76,0.09-13.14,0.11c-0.32,0-0.65-0.05-1.11-0.09C349.7,180.73,349.7,174.39,349.7,167.47
	z"/>
<path class="st0" d="M349.64,160.97c0-5.62,0-11.1,0-16.54c0.14-0.11,0.22-0.24,0.31-0.24c5.81,0.14,11.67-0.12,17.43,0.54
	c5.73,0.66,8.31,6.02,6.12,11.41c-0.66,1.62-1.74,2.91-3.38,3.48c-1.71,0.59-3.52,1.22-5.3,1.29
	C359.83,161.08,354.84,160.97,349.64,160.97z"/>
<path class="st0" d="M250.1,177.51c0-2.78-0.04-5.56,0.04-8.33c0.01-0.48,0.59-1.35,0.89-1.34c6.26,0.11,12.54,0.1,18.78,0.61
	c3.71,0.3,6.43,2.54,7.09,6.45c0.65,3.84,0.37,7.65-3.34,9.9c-1.92,1.17-4.31,1.97-6.54,2.13c-5.2,0.37-10.43,0.22-15.65,0.33
	c-1.08,0.02-1.3-0.47-1.29-1.41C250.12,183.06,250.1,180.28,250.1,177.51z"/>
<path class="st0" d="M250.11,161.04c0-5.5-0.02-10.77,0.04-16.03c0-0.3,0.58-0.87,0.88-0.86c5.65,0.12,11.35-0.09,16.93,0.59
	c5.69,0.69,8.21,5.63,6.31,11.06c-0.64,1.82-1.81,3.24-3.63,3.88c-1.61,0.57-3.3,0.9-4.98,1.24c-0.75,0.15-1.55,0.11-2.32,0.11
	C259.01,161.04,254.69,161.04,250.11,161.04z"/>
<path class="st0" d="M310.83,145.12c3.21,8.45,6.41,16.9,9.69,25.53c-6.52,0-12.81,0-19.32,0c3.1-8.57,6.16-17.03,9.21-25.49
	C310.55,145.15,310.69,145.13,310.83,145.12z"/>
</svg>
