<svg id="Layer_1" data-name="Layer 1" xmlns="http://www.w3.org/2000/svg" width="425.67" height="193.67" viewBox="0 0 425.67 193.67"><defs><style>.cls-1{fill:none;}.cls-2{fill:#fff;}.cls-3{fill:#fff;}</style></defs><path class="cls-1" d="M430.67,4,5,4,5,197.67m425.67,0h-381c7.9-1.31,13.15-6.6,18-12.32a66,66,0,0,0,6.71-9.71c7.84-13.64,13-28.38,17.57-43.36a332.46,332.46,0,0,0,9.58-41.92c1.34-8.08,2.49-16.21,3.32-24.37.7-7,1-14.06,1.16-21.1.23-9.48.24-19-1.39-28.38-.64-3.75-1.88-7.16-4.8-9.8-3.08-2.78-6.28-3-9.64-.68A33.78,33.78,0,0,0,79.68,18.56a2.22,2.22,0,0,0-.3,1.41,2.6,2.6,0,0,0,1,1.41c.18.13.84-.28,1.2-.56a12.17,12.17,0,0,0,1.31-1.28c.94-1,1.79-.84,2.39.31a20.78,20.78,0,0,1,1.49,3.51c1.79,6,1.71,12.24,1.73,18.46A211.26,211.26,0,0,1,85.3,76.9q-3.42,20.57-7.6,41c-3.1,15.12-7.49,29.89-14.33,43.8a100.21,100.21,0,0,1-7.75,13.14c-2.18,3.12-5.17,2.52-6.86-.94a8.06,8.06,0,0,1-.8-2.52,67.48,67.48,0,0,1-1-9.25c.19-14.87.45-29.75.92-44.62.38-12.36,1.12-24.72,1.62-37.08.52-12.59.92-25.18,1.44-37.77a15.53,15.53,0,0,0-1.23-7.12A3,3,0,0,0,47,33.46c-5.19-.25-9.93,1-13.82,4.6a8.34,8.34,0,0,0-2.4,3.69c-3.65,12.79-9,24.88-14.81,36.81a23.35,23.35,0,0,1-3.49,4.83c-.45.54-1.41.65-2.14,1-.26-.68-.52-1.36-.76-2s-.39-1.2-.58-1.8a19.62,19.62,0,0,0-1.77,1.05,2.37,2.37,0,0,0-.65.95c-2.28,5.52-2,13,5.06,16.88,3,1.61,5.82,1.57,8.55-.54A25.18,25.18,0,0,0,28.5,88.16c2.07-5.19,3.86-10.5,5.78-15.75.24-.68.51-1.34.76-2-.16,3.83-.68,7.55-1.11,11.28-.76,6.55-1.55,13.1-2.16,19.66-.5,5.47-.73,11-1.13,16.44-.48,6.64-1.2,13.26-1.48,19.91-.29,6.81-.22,13.64-.2,20.47a77,77,0,0,0,3.43,23.93c1.89,5.77,4.85,10.77,10.5,13.57a44.58,44.58,0,0,0,6.11,2M373.86,50.93c-.35.87-.47,1.18-.6,1.49-.73,1.81-1.18,3.65.11,5.37A5,5,0,0,0,379,59.43a46.9,46.9,0,0,0,8.32-3.21c4.65-2.3,6.64-6.31,6.62-11.41,0-4.1-1.43-6.16-5.31-7.42a30.6,30.6,0,0,0-14.16-.85,94.71,94.71,0,0,0-35.19,13c-5.94,3.58-11.13,8.11-14,14.58-3.74,8.54-1.78,15.2,7.09,18.84a25.46,25.46,0,0,0,2.64,1c5.11,1.46,10.24,2.86,15.34,4.36A80.78,80.78,0,0,1,358.7,91c2.91,1.2,3.13,3.32.67,5.33a17.09,17.09,0,0,1-3.65,2.29c-7.29,3.4-15,4.52-23,4.34a5.32,5.32,0,0,1-2.73-1,6.4,6.4,0,0,1-2.73-5.24c-.25-3.69-.64-7.39-1.17-11a3.37,3.37,0,0,0-1.67-2.21c-1.11-.53-2.1.21-2.8,1.21-.51.73-1,1.44-1.6,2.13-2.83,3.57-5.48,7.3-8.58,10.62a34,34,0,0,1-7.5,6c-3.13,1.85-5.36.57-5.61-3.07a30,30,0,0,1,.46-8.08,146.72,146.72,0,0,1,15.32-41.46c1.79-3.21.24-6.91-3.36-7.38-5.45-.71-8.4.32-10.58,4.5a12.31,12.31,0,0,1-.69,1.05c-2.49-3.48-6-4.47-9.94-4.51-6.8-.07-12.81,2.34-18.45,5.86-7.9,4.95-14.4,11.47-20.23,18.67-6.42,7.91-11.18,16.64-13.18,26.74a3.25,3.25,0,0,1-1,1.5,212.07,212.07,0,0,0-23.49,28.29c-.26.36-.57.69-.86,1a3.27,3.27,0,0,1,.14-1.73c5.19-16.25,10.21-32.55,15.66-48.72,3-8.8,6.69-17.34,10-26a2.43,2.43,0,0,0,.05-1.7,12,12,0,0,0-1.67-2.86,2.47,2.47,0,0,0-1.76-1c-4.07.62-8.14,1.35-11.15,4.57-.81.87-1.48,1.88-2.29,2.92-2.67-2.45-5.79-2.36-8.81-1.35a54,54,0,0,0-9.44,4c-9.76,5.55-17.45,13.47-24.32,22.22-7.36,9.39-13.3,19.52-15.93,31.32a8.71,8.71,0,0,1-.81,2.68c-4.17,6.55-8.2,13.2-12.7,19.52a27.23,27.23,0,0,1-19.66,11.8,6.82,6.82,0,0,1-6.77-2.65c-1.69-2.27-.72-4.41.44-6.35a85.67,85.67,0,0,1,15.28-19.43,29.17,29.17,0,0,0,4.59-6.23,3.34,3.34,0,0,0,0-2.8,6.18,6.18,0,0,0-9.18-2.4c-1.95,1.27-3.7,2.84-5.62,4.15a29.5,29.5,0,0,1-4.59,2.64c-1.63.73-2.31.11-2-1.68a11,11,0,0,1,1.07-3.13A73.78,73.78,0,0,1,136.25,86.1c.46-.44,1-.81,1.64-1.33.27,1,.46,1.72.7,2.44.95,2.91,2.2,3.49,5,2.36a16.81,16.81,0,0,0,10-16.72c-.48-4.37-2.09-5.93-6.48-5.75A19,19,0,0,0,141,68.33c-8.37,3.38-14.94,9.24-21,15.73a45.94,45.94,0,0,0-10,15.73c-2.3,6.24-1.92,12.14,1.57,17.86a7.73,7.73,0,0,0,5.67,3.91c.34,0,.67.16,1,.24l.29.47a9.36,9.36,0,0,0-1.37.92c-3.58,3.39-6.72,7.08-8.42,11.82-2.71,7.58.48,18.17,10.92,20.45a28.79,28.79,0,0,0,12.86-.35c12-2.82,21-9.93,28.4-19.44,1-1.26,1.94-2.53,3-3.89.31.42.52.67.7.94,2.06,3.15,5,4.45,8.72,4.6a17.81,17.81,0,0,0,13.16-5,102,102,0,0,0,18.31-22.76c.41-.67.84-1.31,1.27-2a2.26,2.26,0,0,1-.09,1.41c-2.77,8.07-5.63,16.11-8.28,24.21a41.31,41.31,0,0,1-6.15,11.67c-4.27,5.87-8.25,12-12,18.17-3.49,5.72-5.58,12-4.94,18.83.58,6.32,3.17,11.29,11,10.36,4.49-.53,7-2.45,8.4-6.6A205.93,205.93,0,0,1,210,149.24c6.31-11.26,14.66-21,23.45-30.39,1.65-1.77,3.32-3.53,5.11-5.42.46.75.78,1.32,1.13,1.86a14.12,14.12,0,0,0,12.29,7c4.84.07,8.79-2.06,12.55-4.71a75.34,75.34,0,0,0,19.12-19.76c.43-.64.92-1.25,1.38-1.88a2.17,2.17,0,0,1,0,1.28c-.08.43-.17.87-.22,1.31-.64,5.82-.08,11.32,4.18,15.85a11.41,11.41,0,0,0,7.3,3.57c6.37.75,11.59-1.77,16.34-5.66,1-.83,2-1.69,3.13-2.63a12.2,12.2,0,0,0,7.43,6.47,40.49,40.49,0,0,0,16.48,1.31c7.86-.83,15.17-3.63,22.24-7a31.45,31.45,0,0,0,12.94-10.71c4.4-6.62,3.09-13.82-3.39-18.36a24.39,24.39,0,0,0-6.58-3.5c-6.7-2.1-13.51-3.85-20.28-5.74-1.86-.52-3.75-1-5.57-1.62-1.36-.47-1.57-1.52-.74-2.64a14.75,14.75,0,0,1,2.12-2.34A59.68,59.68,0,0,1,366.35,52C368.68,51.46,371.1,51.31,373.86,50.93Zm0,113c.07-.13.09-.2.13-.22q.41-.28.84-.54c4.87-2.81,7-7,6.62-12.62-.38-5.24-3.24-8.69-7.81-10.91a25.16,25.16,0,0,0-11-2.23c-6.33,0-12.66,0-19,0-.49,0-1,0-1.49.08V193.9H344c6.27,0,12.55,0,18.82,0a50.7,50.7,0,0,0,7.28-.6c8.24-1.3,13-6,14.05-13.7a13.69,13.69,0,0,0-9.18-15.2C374.61,164.23,374.23,164.06,373.83,163.9ZM242.71,193.81c.47,0,.8.08,1.12.08,7.11,0,14.22.08,21.33,0a33.42,33.42,0,0,0,7.25-.94c5.53-1.33,9.93-4.19,11.69-10,2.44-8-.6-16.26-9-18.73a7.6,7.6,0,0,1-.75-.38c.8-.51,1.46-.9,2.1-1.33a13,13,0,0,0-.39-21.89c-3.89-2.48-8.25-3.18-12.74-3.22-6.33-.07-12.66,0-19,0h-1.61Zm42.25.09c2.38,0,4.44-.05,6.48,0a1.66,1.66,0,0,0,1.92-1.33c1.7-4.86,3.54-9.68,5.23-14.54a1.78,1.78,0,0,1,2-1.4c6.89,0,13.77.06,20.66,0a1.83,1.83,0,0,1,2,1.44q2.69,7.24,5.49,14.45c.2.5.66,1.28,1,1.29,2.57.12,5.14.06,7.93.06l-7.45-18.29q-7.49-18.32-14.92-36.65a2.07,2.07,0,0,0-2.42-1.6,29,29,0,0,1-4.66,0,1.94,1.94,0,0,0-2.27,1.54q-7.91,20.75-15.89,41.45C288.45,184.76,286.76,189.2,285,193.9Zm145.5-56.8c-2.13,0-3.9,0-5.66,0a4.15,4.15,0,0,0-4.05,2.35c-3.91,6.77-7.89,13.5-11.86,20.24-2,3.43-4.63,3.41-6.65,0-4-6.79-7.94-13.61-12-20.34a4.62,4.62,0,0,0-2.75-2.07,47.74,47.74,0,0,0-6.71-.09c.4.72.68,1.24,1,1.75,5.26,8.94,10.39,18,15.81,26.81A28.13,28.13,0,0,1,401.91,182c-.07,1.72.55,3.9-.29,5s-3.11,1.39-4.76,2l-.16,0c-2.29.83-3.05,2.34-2.41,4.79h22.58c.37-3.2-.07-3.92-2.94-4.94-1.51-.54-3-1.06-4.63-1.62,0-2.6,0-5.15,0-7.7a22.69,22.69,0,0,1,3.21-11.89l7.67-13.07Zm-34.14,5.47c3,5.14,6,10.14,9.06,15.39l7.29-12.4c-2.31-.3-4.65-.46-6.92-1a25.79,25.79,0,0,1-4.12-1.74A6.43,6.43,0,0,0,396.32,142.57Z" transform="translate(-5 -4)"/><path class="cls-2" d="M49,197.67a44.58,44.58,0,0,1-6.11-2c-5.65-2.8-8.61-7.8-10.5-13.57A77,77,0,0,1,29,158.16c0-6.83-.09-13.66.2-20.47.28-6.65,1-13.27,1.48-19.91.4-5.48.63-11,1.13-16.44.61-6.56,1.4-13.11,2.16-19.66.43-3.73,1-7.45,1.11-11.28-.25.67-.52,1.33-.76,2C32.36,77.66,30.57,83,28.5,88.16a25.18,25.18,0,0,1-8.27,10.67c-2.73,2.11-5.57,2.15-8.55.54C4.58,95.53,4.34,88,6.62,82.49a2.37,2.37,0,0,1,.65-.95A19.62,19.62,0,0,1,9,80.49c.19.6.37,1.2.58,1.8s.5,1.37.76,2c.73-.3,1.69-.41,2.14-1A23.35,23.35,0,0,0,16,78.56c5.77-11.93,11.16-24,14.81-36.81a8.34,8.34,0,0,1,2.4-3.69c3.89-3.55,8.63-4.85,13.82-4.6a3,3,0,0,1,2.71,2.07A15.53,15.53,0,0,1,51,42.65c-.52,12.59-.92,25.18-1.44,37.77-.5,12.36-1.24,24.72-1.62,37.08-.47,14.87-.73,29.75-.92,44.62a67.48,67.48,0,0,0,1,9.25,8.06,8.06,0,0,0,.8,2.52c1.69,3.46,4.68,4.06,6.86.94a100.21,100.21,0,0,0,7.75-13.14C70.21,147.78,74.6,133,77.7,117.89q4.18-20.42,7.6-41a211.26,211.26,0,0,0,3.17-35.08c0-6.22.06-12.43-1.73-18.46a20.78,20.78,0,0,0-1.49-3.51c-.6-1.15-1.45-1.29-2.39-.31a12.17,12.17,0,0,1-1.31,1.28c-.36.28-1,.69-1.2.56a2.6,2.6,0,0,1-1-1.41,2.22,2.22,0,0,1,.3-1.41A33.78,33.78,0,0,1,90.15,6c3.36-2.37,6.56-2.1,9.64.68,2.92,2.64,4.16,6.05,4.8,9.8,1.63,9.4,1.62,18.9,1.39,28.38-.17,7-.46,14.1-1.16,21.1-.83,8.16-2,16.29-3.32,24.37a332.46,332.46,0,0,1-9.58,41.92c-4.54,15-9.73,29.72-17.57,43.36a66,66,0,0,1-6.71,9.71c-4.82,5.72-10.07,11-18,12.32Z" transform="translate(-5 -4)"/><path class="cls-2" d="M373.86,50.93c-2.76.38-5.18.53-7.51,1.08a59.68,59.68,0,0,0-25.86,13.47,14.75,14.75,0,0,0-2.12,2.34c-.83,1.12-.62,2.17.74,2.64,1.82.63,3.71,1.1,5.57,1.62,6.77,1.89,13.58,3.64,20.28,5.74a24.39,24.39,0,0,1,6.58,3.5c6.48,4.54,7.79,11.74,3.39,18.36A31.45,31.45,0,0,1,362,110.39c-7.07,3.41-14.38,6.21-22.24,7a40.49,40.49,0,0,1-16.48-1.31,12.2,12.2,0,0,1-7.43-6.47c-1.11.94-2.11,1.8-3.13,2.63-4.75,3.89-10,6.41-16.34,5.66a11.41,11.41,0,0,1-7.3-3.57c-4.26-4.53-4.82-10-4.18-15.85.05-.44.14-.88.22-1.31a2.17,2.17,0,0,0,0-1.28c-.46.63-.95,1.24-1.38,1.88a75.34,75.34,0,0,1-19.12,19.76c-3.76,2.65-7.71,4.78-12.55,4.71a14.12,14.12,0,0,1-12.29-7c-.35-.54-.67-1.11-1.13-1.86-1.79,1.89-3.46,3.65-5.11,5.42C224.7,128.23,216.35,138,210,149.24a205.93,205.93,0,0,0-16.18,36.43c-1.36,4.15-3.91,6.07-8.4,6.6-7.85.93-10.44-4-11-10.36-.64-6.85,1.45-13.11,4.94-18.83,3.78-6.2,7.76-12.3,12-18.17a41.31,41.31,0,0,0,6.15-11.67c2.65-8.1,5.51-16.14,8.28-24.21a2.26,2.26,0,0,0,.09-1.41c-.43.66-.86,1.3-1.27,2a102,102,0,0,1-18.31,22.76,17.81,17.81,0,0,1-13.16,5c-3.71-.15-6.66-1.45-8.72-4.6-.18-.27-.39-.52-.7-.94-1,1.36-2,2.63-3,3.89-7.39,9.51-16.42,16.62-28.4,19.44a28.79,28.79,0,0,1-12.86.35c-10.44-2.28-13.63-12.87-10.92-20.45,1.7-4.74,4.84-8.43,8.42-11.82a9.36,9.36,0,0,1,1.37-.92l-.29-.47c-.34-.08-.67-.19-1-.24a7.73,7.73,0,0,1-5.67-3.91c-3.49-5.72-3.87-11.62-1.57-17.86a45.94,45.94,0,0,1,10-15.73c6.09-6.49,12.66-12.35,21-15.73a19,19,0,0,1,6.12-1.23c4.39-.18,6,1.38,6.48,5.75a16.81,16.81,0,0,1-10,16.72c-2.78,1.13-4,.55-5-2.36-.24-.72-.43-1.47-.7-2.44-.64.52-1.18.89-1.64,1.33A73.78,73.78,0,0,0,123,104.34a11,11,0,0,0-1.07,3.13c-.36,1.79.32,2.41,2,1.68a29.5,29.5,0,0,0,4.59-2.64c1.92-1.31,3.67-2.88,5.62-4.15a6.18,6.18,0,0,1,9.18,2.4,3.34,3.34,0,0,1,0,2.8,29.17,29.17,0,0,1-4.59,6.23,85.67,85.67,0,0,0-15.28,19.43c-1.16,1.94-2.13,4.08-.44,6.35a6.82,6.82,0,0,0,6.77,2.65,27.23,27.23,0,0,0,19.66-11.8c4.5-6.32,8.53-13,12.7-19.52a8.71,8.71,0,0,0,.81-2.68c2.63-11.8,8.57-21.93,15.93-31.32,6.87-8.75,14.56-16.67,24.32-22.22a54,54,0,0,1,9.44-4c3-1,6.14-1.1,8.81,1.35.81-1,1.48-2.05,2.29-2.92,3-3.22,7.08-4,11.15-4.57a2.47,2.47,0,0,1,1.76,1,12,12,0,0,1,1.67,2.86,2.43,2.43,0,0,1-.05,1.7c-3.34,8.68-7.06,17.22-10,26-5.45,16.17-10.47,32.47-15.66,48.72a3.27,3.27,0,0,0-.14,1.73c.29-.34.6-.67.86-1a212.07,212.07,0,0,1,23.49-28.29,3.25,3.25,0,0,0,1-1.5c2-10.1,6.76-18.83,13.18-26.74,5.83-7.2,12.33-13.72,20.23-18.67,5.64-3.52,11.65-5.93,18.45-5.86,3.95,0,7.45,1,9.94,4.51a12.31,12.31,0,0,0,.69-1.05c2.18-4.18,5.13-5.21,10.58-4.5,3.6.47,5.15,4.17,3.36,7.38a146.72,146.72,0,0,0-15.32,41.46,30,30,0,0,0-.46,8.08c.25,3.64,2.48,4.92,5.61,3.07a34,34,0,0,0,7.5-6c3.1-3.32,5.75-7,8.58-10.62.56-.69,1.09-1.4,1.6-2.13.7-1,1.69-1.74,2.8-1.21a3.37,3.37,0,0,1,1.67,2.21c.53,3.66.92,7.36,1.17,11A6.4,6.4,0,0,0,330,102a5.32,5.32,0,0,0,2.73,1c8,.18,15.71-.94,23-4.34a17.09,17.09,0,0,0,3.65-2.29c2.46-2,2.24-4.13-.67-5.33a80.78,80.78,0,0,0-8.35-2.76c-5.1-1.5-10.23-2.9-15.34-4.36a25.46,25.46,0,0,1-2.64-1c-8.87-3.64-10.83-10.3-7.09-18.84,2.83-6.47,8-11,14-14.58a94.71,94.71,0,0,1,35.19-13,30.6,30.6,0,0,1,14.16.85c3.88,1.26,5.3,3.32,5.31,7.42,0,5.1-2,9.11-6.62,11.41A46.9,46.9,0,0,1,379,59.43a5,5,0,0,1-5.59-1.64c-1.29-1.72-.84-3.56-.11-5.37C373.39,52.11,373.51,51.8,373.86,50.93ZM217.79,60.48l-.36-.35c-.68.34-1.37.66-2,1C195,72.21,182.58,89.46,176.7,111.63c-.75,2.83-.65,5.91-.74,8.88,0,.81.67,1.65,1,2.47a9.1,9.1,0,0,0,2.22-1.27c1.79-1.81,3.56-3.66,5.17-5.63,11.17-13.77,20.13-28.93,28.05-44.74C214.25,67.73,216,64.1,217.79,60.48Zm78.13-5.81a6.36,6.36,0,0,0-1.48,0,71.81,71.81,0,0,0-8.22,2.55C279.43,60.19,274,65,269.06,70.43A77.14,77.14,0,0,0,251.85,101a10.41,10.41,0,0,0-.22,4.09c.26,2.09,1.65,2.71,3.43,1.6a20.37,20.37,0,0,0,3.44-2.61c3.32-3.19,6.64-6.38,9.81-9.72,5.52-5.85,11.09-11.67,15.21-18.68,3.85-6.55,7.77-13.06,11.66-19.59C295.42,55.72,295.61,55.28,295.92,54.67Z" transform="translate(-5 -4)"/><path class="cls-2" d="M373.83,163.9c.4.16.78.33,1.18.47a13.69,13.69,0,0,1,9.18,15.2c-1,7.67-5.81,12.4-14.05,13.7a50.7,50.7,0,0,1-7.28.6c-6.27.08-12.55,0-18.82,0h-1.9V137.45c.52,0,1-.08,1.49-.08,6.32,0,12.65,0,19,0a25.16,25.16,0,0,1,11,2.23c4.57,2.22,7.43,5.67,7.81,10.91.41,5.59-1.75,9.81-6.62,12.62q-.44.26-.84.54S373.9,163.77,373.83,163.9Zm-24.13,3.57v19.67c.46,0,.78.09,1.11.09,4.38,0,8.76.06,13.14-.1a24.84,24.84,0,0,0,6.36-1,8.43,8.43,0,0,0,6.25-9.09c-.31-5-2.42-8-7.2-8.54C362.89,167.77,356.35,167.78,349.7,167.47Zm-.06-6.5c5.2,0,10.19.11,15.18-.06a18.5,18.5,0,0,0,5.3-1.29,5.7,5.7,0,0,0,3.38-3.47c2.19-5.39-.39-10.75-6.12-11.41s-11.62-.4-17.43-.54c-.09,0-.17.12-.31.23Z" transform="translate(-5 -4)"/><path class="cls-2" d="M242.71,193.81V137.37h1.61c6.34,0,12.67-.05,19,0,4.49,0,8.85.74,12.74,3.22a13,13,0,0,1,.39,21.89c-.64.43-1.3.82-2.1,1.33a7.6,7.6,0,0,0,.75.38c8.4,2.47,11.44,10.72,9,18.73-1.76,5.78-6.16,8.64-11.69,10a33.42,33.42,0,0,1-7.25.94c-7.11.12-14.22.05-21.33,0C243.51,193.89,243.18,193.85,242.71,193.81Zm7.39-16.3c0,2.77,0,5.55,0,8.33,0,.94.21,1.43,1.29,1.41,5.22-.11,10.45,0,15.65-.33a15,15,0,0,0,6.54-2.13c3.7-2.24,4-6.06,3.33-9.9a7.37,7.37,0,0,0-7.08-6.45c-6.24-.51-12.52-.5-18.79-.61-.3,0-.87.87-.88,1.34C250.05,172,250.1,174.73,250.1,177.51Zm0-16.47h13.23a12,12,0,0,0,2.32-.11,36.61,36.61,0,0,0,5-1.24,6,6,0,0,0,3.63-3.89c1.9-5.43-.62-10.37-6.31-11.06s-11.28-.47-16.93-.59a1.28,1.28,0,0,0-.89.87C250.09,150.27,250.11,155.53,250.11,161Z" transform="translate(-5 -4)"/><path class="cls-2" d="M285,193.9c1.8-4.7,3.49-9.14,5.19-13.57q8-20.73,15.89-41.45a1.94,1.94,0,0,1,2.27-1.54,29,29,0,0,0,4.66,0,2.07,2.07,0,0,1,2.42,1.6q7.39,18.34,14.92,36.65l7.45,18.29c-2.79,0-5.36.06-7.93-.06-.36,0-.82-.79-1-1.29q-2.79-7.22-5.49-14.45a1.83,1.83,0,0,0-2-1.44c-6.89.07-13.77.06-20.66,0a1.78,1.78,0,0,0-2,1.4c-1.69,4.86-3.53,9.68-5.23,14.54a1.66,1.66,0,0,1-1.92,1.33C289.4,193.85,287.34,193.9,285,193.9Zm25.87-48.78-.42,0c-3.05,8.46-6.11,16.92-9.21,25.49h19.32C317.25,162,314,153.57,310.83,145.12Z" transform="translate(-5 -4)"/><path class="cls-2" d="M430.46,137.1l-10.29,17.54-7.67,13.07a22.69,22.69,0,0,0-3.21,11.89c0,2.55,0,5.1,0,7.7,1.6.56,3.12,1.08,4.63,1.62,2.87,1,3.31,1.74,2.94,4.94H394.29c-.64-2.45.12-4,2.41-4.79l.16,0c1.65-.63,3.88-.83,4.76-2s.22-3.31.29-5a28.13,28.13,0,0,0-4.38-16.27c-5.42-8.85-10.55-17.87-15.81-26.81-.29-.51-.57-1-1-1.75a47.74,47.74,0,0,1,6.71.09,4.62,4.62,0,0,1,2.75,2.07c4.09,6.73,8,13.55,12,20.34,2,3.44,4.63,3.46,6.65,0,4-6.74,7.95-13.47,11.86-20.24a4.15,4.15,0,0,1,4.05-2.35C426.56,137.14,428.33,137.1,430.46,137.1Z" transform="translate(-5 -4)"/><path class="cls-3" d="M396.32,142.57a6.43,6.43,0,0,1,5.31.28,25.79,25.79,0,0,0,4.12,1.74c2.27.51,4.61.67,6.92,1L405.38,158C402.28,152.71,399.34,147.71,396.32,142.57Z" transform="translate(-5 -4)"/><path class="cls-1" d="M217.79,60.48c-1.78,3.62-3.54,7.25-5.35,10.86-7.92,15.81-16.88,31-28.05,44.74-1.61,2-3.38,3.82-5.17,5.63A9.1,9.1,0,0,1,177,123c-.37-.82-1.06-1.66-1-2.47.09-3,0-6.05.74-8.88,5.88-22.17,18.28-39.42,38.7-50.48.66-.36,1.35-.68,2-1Z" transform="translate(-5 -4)"/><path class="cls-1" d="M295.92,54.67c-.31.61-.5,1-.74,1.46-3.89,6.53-7.81,13-11.66,19.59-4.12,7-9.69,12.83-15.21,18.68-3.17,3.34-6.49,6.53-9.81,9.72a20.37,20.37,0,0,1-3.44,2.61c-1.78,1.11-3.17.49-3.43-1.6a10.41,10.41,0,0,1,.22-4.09,77.14,77.14,0,0,1,17.21-30.61C274,65,279.43,60.19,286.22,57.24a71.81,71.81,0,0,1,8.22-2.55A6.36,6.36,0,0,1,295.92,54.67Z" transform="translate(-5 -4)"/><path class="cls-1" d="M349.7,167.47c6.65.31,13.19.3,19.66,1,4.78.53,6.89,3.55,7.2,8.54a8.43,8.43,0,0,1-6.25,9.09,24.84,24.84,0,0,1-6.36,1c-4.38.16-8.76.09-13.14.1-.33,0-.65,0-1.11-.09Z" transform="translate(-5 -4)"/><path class="cls-1" d="M349.64,161V144.43c.14-.11.22-.23.31-.23,5.81.14,11.67-.12,17.43.54s8.31,6,6.12,11.41a5.7,5.7,0,0,1-3.38,3.47,18.5,18.5,0,0,1-5.3,1.29C359.83,161.08,354.84,161,349.64,161Z" transform="translate(-5 -4)"/><path class="cls-1" d="M250.1,177.51c0-2.78,0-5.56,0-8.34,0-.47.58-1.34.88-1.34,6.27.11,12.55.1,18.79.61a7.37,7.37,0,0,1,7.08,6.45c.65,3.84.37,7.66-3.33,9.9a15,15,0,0,1-6.54,2.13c-5.2.37-10.43.22-15.65.33-1.08,0-1.3-.47-1.29-1.41C250.12,183.06,250.1,180.28,250.1,177.51Z" transform="translate(-5 -4)"/><path class="cls-1" d="M250.11,161c0-5.51,0-10.77,0-16a1.28,1.28,0,0,1,.89-.87c5.65.12,11.34-.09,16.93.59s8.21,5.63,6.31,11.06a6,6,0,0,1-3.63,3.89,36.61,36.61,0,0,1-5,1.24,12,12,0,0,1-2.32.11Z" transform="translate(-5 -4)"/><path class="cls-1" d="M310.83,145.12c3.21,8.45,6.42,16.9,9.69,25.53H301.2c3.1-8.57,6.16-17,9.21-25.49Z" transform="translate(-5 -4)"/></svg>